<svg xmlns="http://www.w3.org/2000/svg" width="29" height="27" viewBox="0 0 29 27"><g><g><g><path fill="#68d6f4" d="M12.32 24.654a1.045 1.045 0 0 1 0-2.088 1.045 1.045 0 0 1 0 2.088zm.005-3.414a2.378 2.378 0 0 0-2.375 2.375 2.378 2.378 0 0 0 2.375 2.375 2.378 2.378 0 0 0 2.375-2.375 2.378 2.378 0 0 0-2.375-2.375z"/><path fill="none" stroke="#68d6f4" stroke-miterlimit="20" stroke-width=".5" d="M12.32 24.654a1.045 1.045 0 0 1 0-2.088 1.045 1.045 0 0 1 0 2.088zm.005-3.414a2.378 2.378 0 0 0-2.375 2.375 2.378 2.378 0 0 0 2.375 2.375 2.378 2.378 0 0 0 2.375-2.375 2.378 2.378 0 0 0-2.375-2.375z"/></g><g><path fill="#68d6f4" d="M20.65 24.654a1.045 1.045 0 0 1 0-2.088 1.045 1.045 0 0 1 0 2.088zm.005-3.414a2.378 2.378 0 0 0-2.375 2.375 2.378 2.378 0 0 0 2.375 2.375 2.378 2.378 0 0 0 2.375-2.375 2.378 2.378 0 0 0-2.375-2.375z"/><path fill="none" stroke="#68d6f4" stroke-miterlimit="20" stroke-width=".5" d="M20.65 24.654a1.045 1.045 0 0 1 0-2.088 1.045 1.045 0 0 1 0 2.088zm.005-3.414a2.378 2.378 0 0 0-2.375 2.375 2.378 2.378 0 0 0 2.375 2.375 2.378 2.378 0 0 0 2.375-2.375 2.378 2.378 0 0 0-2.375-2.375z"/></g><g><path fill="#68d6f4" d="M21.235 8.74h-9.502a.663.663 0 1 0 0 1.326h9.502a.663.663 0 1 0 0-1.326z"/><path fill="none" stroke="#68d6f4" stroke-miterlimit="20" stroke-width=".5" d="M21.235 8.74h-9.502a.663.663 0 1 0 0 1.326h9.502a.663.663 0 1 0 0-1.326z"/></g><g><path fill="#68d6f4" d="M20.72 12.18h-8.467a.663.663 0 1 0 0 1.326h8.467a.663.663 0 0 0 0-1.326z"/><path fill="none" stroke="#68d6f4" stroke-miterlimit="20" stroke-width=".5" d="M20.72 12.18h-8.467a.663.663 0 1 0 0 1.326h8.467a.663.663 0 0 0 0-1.326z"/></g><g><path fill="#68d6f4" d="M24.823 15.632H8.153L6.298 6.625h20.38zm2.883-9.842a1.32 1.32 0 0 0-1.028-.488H6.025l-.417-2.025a1.328 1.328 0 0 0-.77-.949l-2.91-1.263a.663.663 0 1 0-.529 1.216l2.91 1.264 3.208 15.572a1.331 1.331 0 0 0 1.3 1.059H24.7a.663.663 0 1 0 0-1.326H8.816l-.39-1.894h16.397c.626 0 1.173-.446 1.3-1.059l1.854-9.002a1.32 1.32 0 0 0-.271-1.105z"/><path fill="none" stroke="#68d6f4" stroke-miterlimit="20" stroke-width=".5" d="M24.823 15.632H8.153L6.298 6.625h20.38zm2.883-9.842a1.32 1.32 0 0 0-1.028-.488H6.025l-.417-2.025a1.328 1.328 0 0 0-.77-.949l-2.91-1.263a.663.663 0 1 0-.529 1.216l2.91 1.264 3.208 15.572a1.331 1.331 0 0 0 1.3 1.059H24.7a.663.663 0 1 0 0-1.326H8.816l-.39-1.894h16.397c.626 0 1.173-.446 1.3-1.059l1.854-9.002a1.32 1.32 0 0 0-.271-1.105z"/></g></g></g></svg>