<svg xmlns="http://www.w3.org/2000/svg" width="32" height="34" viewBox="0 0 32 34"><g><g><g><path fill="#fff" d="M11.953 17.12a.471.471 0 1 0-.85.404c.082.174.124.36.124.556v1.01c0 .715-.582 1.297-1.297 1.297a1.299 1.299 0 0 1-1.298-1.297v-1.01c0-.716.582-1.298 1.298-1.298a.471.471 0 0 0 0-.942 2.242 2.242 0 0 0-2.24 2.24v1.01a2.242 2.242 0 0 0 2.24 2.24 2.242 2.242 0 0 0 2.24-2.24v-1.01a2.22 2.22 0 0 0-.217-.96z"/><path fill="none" stroke="#fff" stroke-miterlimit="20" stroke-width=".6" d="M11.953 17.12a.471.471 0 1 0-.85.404c.082.174.124.36.124.556v1.01c0 .715-.582 1.297-1.297 1.297a1.299 1.299 0 0 1-1.298-1.297v-1.01c0-.716.582-1.298 1.298-1.298a.471.471 0 0 0 0-.942 2.242 2.242 0 0 0-2.24 2.24v1.01a2.242 2.242 0 0 0 2.24 2.24 2.242 2.242 0 0 0 2.24-2.24v-1.01a2.22 2.22 0 0 0-.217-.96z"/></g><g><path fill="#fff" d="M23.573 17.12a.471.471 0 1 0-.85.404c.082.174.124.36.124.556v1.01c0 .715-.582 1.297-1.297 1.297a1.299 1.299 0 0 1-1.298-1.297v-1.01c0-.716.582-1.298 1.298-1.298a.471.471 0 0 0 0-.942 2.242 2.242 0 0 0-2.24 2.24v1.01a2.242 2.242 0 0 0 2.24 2.24 2.242 2.242 0 0 0 2.24-2.24v-1.01a2.22 2.22 0 0 0-.217-.96z"/><path fill="none" stroke="#fff" stroke-miterlimit="20" stroke-width=".6" d="M23.573 17.12a.471.471 0 1 0-.85.404c.082.174.124.36.124.556v1.01c0 .715-.582 1.297-1.297 1.297a1.299 1.299 0 0 1-1.298-1.297v-1.01c0-.716.582-1.298 1.298-1.298a.471.471 0 0 0 0-.942 2.242 2.242 0 0 0-2.24 2.24v1.01a2.242 2.242 0 0 0 2.24 2.24 2.242 2.242 0 0 0 2.24-2.24v-1.01a2.22 2.22 0 0 0-.217-.96z"/></g><g><path fill="#fff" d="M17.289 28.439c0 .854-.696 1.55-1.55 1.55-.855 0-1.55-.696-1.55-1.55v-.678a3.48 3.48 0 0 0 .996-.47.92.92 0 0 1 .083-.05v.692a.471.471 0 0 0 .942 0v-.692a.913.913 0 0 1 .083.05c.308.21.643.367.996.47zm3.348-2.102a.471.471 0 0 0-.666-.036 2.554 2.554 0 0 1-3.147.212 1.938 1.938 0 0 0-2.171 0 2.554 2.554 0 0 1-3.147-.212.471.471 0 1 0-.63.701 3.495 3.495 0 0 0 2.336.897h.034v.54a2.495 2.495 0 0 0 2.493 2.492 2.495 2.495 0 0 0 2.492-2.492v-.54h.034c.861 0 1.69-.318 2.336-.897a.471.471 0 0 0 .036-.665z"/><path fill="none" stroke="#fff" stroke-miterlimit="20" stroke-width=".6" d="M17.289 28.439c0 .854-.696 1.55-1.55 1.55-.855 0-1.55-.696-1.55-1.55v-.678a3.48 3.48 0 0 0 .996-.47.92.92 0 0 1 .083-.05v.692a.471.471 0 0 0 .942 0v-.692a.913.913 0 0 1 .083.05c.308.21.643.367.996.47zm3.348-2.102a.471.471 0 0 0-.666-.036 2.554 2.554 0 0 1-3.147.212 1.938 1.938 0 0 0-2.171 0 2.554 2.554 0 0 1-3.147-.212.471.471 0 1 0-.63.701 3.495 3.495 0 0 0 2.336.897h.034v.54a2.495 2.495 0 0 0 2.493 2.492 2.495 2.495 0 0 0 2.492-2.492v-.54h.034c.861 0 1.69-.318 2.336-.897a.471.471 0 0 0 .036-.665z"/></g><g><path fill="#fff" d="M16.936 22.87l-1.116 1.388a.098.098 0 0 1-.079.038.099.099 0 0 1-.079-.038l-1.116-1.389a.096.096 0 0 1-.012-.108.095.095 0 0 1 .092-.059h2.231c.043 0 .074.02.092.059a.096.096 0 0 1-.013.108zm.863-.516a1.036 1.036 0 0 0-.942-.594h-2.231c-.407 0-.768.228-.943.594-.175.367-.125.79.13 1.107l1.116 1.38c.2.246.496.388.812.388.317 0 .613-.142.812-.388l1.116-1.38c.256-.316.305-.74.13-1.107z"/><path fill="none" stroke="#fff" stroke-miterlimit="20" stroke-width=".6" d="M16.936 22.87l-1.116 1.388a.098.098 0 0 1-.079.038.099.099 0 0 1-.079-.038l-1.116-1.389a.096.096 0 0 1-.012-.108.095.095 0 0 1 .092-.059h2.231c.043 0 .074.02.092.059a.096.096 0 0 1-.013.108zm.863-.516a1.036 1.036 0 0 0-.942-.594h-2.231c-.407 0-.768.228-.943.594-.175.367-.125.79.13 1.107l1.116 1.38c.2.246.496.388.812.388.317 0 .613-.142.812-.388l1.116-1.38c.256-.316.305-.74.13-1.107z"/></g><g><path fill="#fff" d="M28.739 23.088c-2.886-.405-6.368-.308-6.545-.302a.471.471 0 0 0 .028.942c.042-.001 3.382-.095 6.164.264a12.653 12.653 0 0 1-1.105 2.011c-2.778-1.027-5.68-1.6-5.836-1.63a.471.471 0 0 0-.18.925c.036.007 2.778.548 5.437 1.5-2.496 3.159-6.483 5.209-10.968 5.209s-8.472-2.05-10.967-5.21c2.658-.95 5.4-1.492 5.436-1.499a.471.471 0 0 0-.18-.925c-.156.03-3.057.603-5.836 1.63a12.653 12.653 0 0 1-1.105-2.011c2.782-.36 6.123-.266 6.164-.264a.471.471 0 1 0 .028-.942c-.177-.006-3.66-.103-6.544.302a12.217 12.217 0 0 1-.672-4c0-7.123 6.135-12.918 13.676-12.918S29.41 11.965 29.41 19.088c0 1.396-.236 2.74-.671 4zM3.069 3.679l3.845 4.347c-.53.381-1.036.798-1.514 1.252a14.046 14.046 0 0 0-2.332 2.878zm.307-1.902a.528.528 0 0 1 .572.068L9.65 6.486c-.67.292-1.317.632-1.937 1.02L3.07 2.26a.529.529 0 0 1 .307-.483zm24.145.068a.528.528 0 0 1 .571-.068.528.528 0 0 1 .308.483l-.911 1.028a.472.472 0 0 0 .705.626l.206-.233v8.485a14.063 14.063 0 0 0-2.338-2.88c-.48-.455-.987-.872-1.517-1.254l2.313-2.611a.472.472 0 0 0-.705-.626l-2.398 2.706a14.72 14.72 0 0 0-1.936-1.018zm2.988 21.588c-.259-.07-.535-.132-.822-.188a13.24 13.24 0 0 0 .666-4.157c0-1.768-.348-3.485-1.01-5.083V2.264a1.47 1.47 0 0 0-.846-1.338 1.47 1.47 0 0 0-1.57.188l-6.117 4.97a15.338 15.338 0 0 0-5.076-.857c-1.76 0-3.473.294-5.076.856l-6.116-4.97A1.47 1.47 0 0 0 2.971.927a1.47 1.47 0 0 0-.845 1.338v11.742a13.222 13.222 0 0 0-1.01 5.082c0 1.432.228 2.83.666 4.157-.288.056-.564.119-.823.188a.471.471 0 1 0 .245.91 11.6 11.6 0 0 1 .91-.201c.317.769.707 1.51 1.167 2.215-.488.203-.963.42-1.406.65a.471.471 0 0 0 .434.836c.476-.247.994-.479 1.53-.694.466.617.99 1.202 1.567 1.75 2.76 2.612 6.428 4.05 10.328 4.05 3.9 0 7.568-1.438 10.328-4.05a14.26 14.26 0 0 0 1.568-1.75c.535.215 1.053.447 1.529.694a.469.469 0 0 0 .635-.2.471.471 0 0 0-.2-.636c-.444-.23-.918-.447-1.407-.65.46-.705.85-1.446 1.168-2.215.321.059.627.125.91.201a.473.473 0 0 0 .577-.332.471.471 0 0 0-.333-.578z"/><path fill="none" stroke="#fff" stroke-miterlimit="20" stroke-width=".6" d="M28.739 23.088c-2.886-.405-6.368-.308-6.545-.302a.471.471 0 0 0 .028.942c.042-.001 3.382-.095 6.164.264a12.653 12.653 0 0 1-1.105 2.011c-2.778-1.027-5.68-1.6-5.836-1.63a.471.471 0 0 0-.18.925c.036.007 2.778.548 5.437 1.5-2.496 3.159-6.483 5.209-10.968 5.209s-8.472-2.05-10.967-5.21c2.658-.95 5.4-1.492 5.436-1.499a.471.471 0 0 0-.18-.925c-.156.03-3.057.603-5.836 1.63a12.653 12.653 0 0 1-1.105-2.011c2.782-.36 6.123-.266 6.164-.264a.471.471 0 1 0 .028-.942c-.177-.006-3.66-.103-6.544.302a12.217 12.217 0 0 1-.672-4c0-7.123 6.135-12.918 13.676-12.918S29.41 11.965 29.41 19.088c0 1.396-.236 2.74-.671 4zM3.069 3.679l3.845 4.347c-.53.381-1.036.798-1.514 1.252a14.046 14.046 0 0 0-2.332 2.878zm.307-1.902a.528.528 0 0 1 .572.068L9.65 6.486c-.67.292-1.317.632-1.937 1.02L3.07 2.26a.529.529 0 0 1 .307-.483zm24.145.068a.528.528 0 0 1 .571-.068.528.528 0 0 1 .308.483l-.911 1.028a.472.472 0 0 0 .705.626l.206-.233v8.485a14.063 14.063 0 0 0-2.338-2.88c-.48-.455-.987-.872-1.517-1.254l2.313-2.611a.472.472 0 0 0-.705-.626l-2.398 2.706a14.72 14.72 0 0 0-1.936-1.018zm2.988 21.588c-.259-.07-.535-.132-.822-.188a13.24 13.24 0 0 0 .666-4.157c0-1.768-.348-3.485-1.01-5.083V2.264a1.47 1.47 0 0 0-.846-1.338 1.47 1.47 0 0 0-1.57.188l-6.117 4.97a15.338 15.338 0 0 0-5.076-.857c-1.76 0-3.473.294-5.076.856l-6.116-4.97A1.47 1.47 0 0 0 2.971.927a1.47 1.47 0 0 0-.845 1.338v11.742a13.222 13.222 0 0 0-1.01 5.082c0 1.432.228 2.83.666 4.157-.288.056-.564.119-.823.188a.471.471 0 1 0 .245.91 11.6 11.6 0 0 1 .91-.201c.317.769.707 1.51 1.167 2.215-.488.203-.963.42-1.406.65a.471.471 0 0 0 .434.836c.476-.247.994-.479 1.53-.694.466.617.99 1.202 1.567 1.75 2.76 2.612 6.428 4.05 10.328 4.05 3.9 0 7.568-1.438 10.328-4.05a14.26 14.26 0 0 0 1.568-1.75c.535.215 1.053.447 1.529.694a.469.469 0 0 0 .635-.2.471.471 0 0 0-.2-.636c-.444-.23-.918-.447-1.407-.65.46-.705.85-1.446 1.168-2.215.321.059.627.125.91.201a.473.473 0 0 0 .577-.332.471.471 0 0 0-.333-.578z"/></g></g></g></svg>