<svg xmlns="http://www.w3.org/2000/svg" width="31" height="32" viewBox="0 0 31 32"><g><g><g><path fill="#fff" d="M10.116 16.791a1.306 1.306 0 1 0 0-2.611 1.306 1.306 0 0 0 0 2.611z"/><path fill="none" stroke="#fff" stroke-miterlimit="20" stroke-width=".6" d="M10.116 16.791a1.306 1.306 0 1 0 0-2.611 1.306 1.306 0 0 0 0 2.611z"/></g><g><path fill="#fff" d="M20.796 16.791a1.306 1.306 0 1 0 0-2.611 1.306 1.306 0 0 0 0 2.611z"/><path fill="none" stroke="#fff" stroke-miterlimit="20" stroke-width=".6" d="M20.796 16.791a1.306 1.306 0 1 0 0-2.611 1.306 1.306 0 0 0 0 2.611z"/></g><g><path fill="#fff" d="M22.957 6.08a12.863 12.863 0 0 0-3.471-1.754c1.192-1.426 1.43-2.596 1.44-2.652a.546.546 0 0 0-.486-.648c-.126-.011-3.11-.27-4.637 1.121a2.817 2.817 0 0 0-.346.376 2.82 2.82 0 0 0-.345-.376c-1.527-1.392-4.511-1.132-4.637-1.12a.547.547 0 0 0-.486.647c.01.056.248 1.226 1.44 2.652a12.958 12.958 0 0 0-8.455 8.865 27.737 27.737 0 0 1-1.59 4.348c-.494 1.062-.71 2.486-.592 3.908a9.073 9.073 0 0 0 1.81 4.746.546.546 0 1 0 .87-.661c-2.094-2.759-1.803-6.015-1.097-7.531a28.813 28.813 0 0 0 1.653-4.52 11.86 11.86 0 0 1 8.534-8.346.546.546 0 0 0 .251-.918c-.842-.833-1.293-1.61-1.525-2.124.946.014 2.348.186 3.09.863.359.328.533.745.533 1.276a.546.546 0 1 0 1.093 0c0-.53.175-.948.534-1.276.74-.677 2.144-.85 3.09-.863-.233.515-.685 1.292-1.526 2.124a.546.546 0 0 0 .25.919c1.428.358 2.764.975 3.971 1.835a.547.547 0 0 0 .634-.89z"/><path fill="none" stroke="#fff" stroke-miterlimit="20" stroke-width=".6" d="M22.957 6.08a12.863 12.863 0 0 0-3.471-1.754c1.192-1.426 1.43-2.596 1.44-2.652a.546.546 0 0 0-.486-.648c-.126-.011-3.11-.27-4.637 1.121a2.817 2.817 0 0 0-.346.376 2.82 2.82 0 0 0-.345-.376c-1.527-1.392-4.511-1.132-4.637-1.12a.547.547 0 0 0-.486.647c.01.056.248 1.226 1.44 2.652a12.958 12.958 0 0 0-8.455 8.865 27.737 27.737 0 0 1-1.59 4.348c-.494 1.062-.71 2.486-.592 3.908a9.073 9.073 0 0 0 1.81 4.746.546.546 0 1 0 .87-.661c-2.094-2.759-1.803-6.015-1.097-7.531a28.813 28.813 0 0 0 1.653-4.52 11.86 11.86 0 0 1 8.534-8.346.546.546 0 0 0 .251-.918c-.842-.833-1.293-1.61-1.525-2.124.946.014 2.348.186 3.09.863.359.328.533.745.533 1.276a.546.546 0 1 0 1.093 0c0-.53.175-.948.534-1.276.74-.677 2.144-.85 3.09-.863-.233.515-.685 1.292-1.526 2.124a.546.546 0 0 0 .25.919c1.428.358 2.764.975 3.971 1.835a.547.547 0 0 0 .634-.89z"/></g><g><path fill="#fff" d="M29.523 17.534a27.737 27.737 0 0 1-1.59-4.348 12.995 12.995 0 0 0-2.72-5.059.546.546 0 1 0-.824.718 11.897 11.897 0 0 1 2.491 4.63 28.82 28.82 0 0 0 1.653 4.52c.634 1.361.964 4.346-.724 6.996-1.42 2.228-4.717 4.884-12.359 4.884-4.27 0-7.628-.826-9.983-2.455a.546.546 0 1 0-.622.898c2.54 1.759 6.109 2.65 10.605 2.65 8.138 0 11.713-2.931 13.28-5.39 1.803-2.828 1.675-6.152.793-8.044z"/><path fill="none" stroke="#fff" stroke-miterlimit="20" stroke-width=".6" d="M29.523 17.534a27.737 27.737 0 0 1-1.59-4.348 12.995 12.995 0 0 0-2.72-5.059.546.546 0 1 0-.824.718 11.897 11.897 0 0 1 2.491 4.63 28.82 28.82 0 0 0 1.653 4.52c.634 1.361.964 4.346-.724 6.996-1.42 2.228-4.717 4.884-12.359 4.884-4.27 0-7.628-.826-9.983-2.455a.546.546 0 1 0-.622.898c2.54 1.759 6.109 2.65 10.605 2.65 8.138 0 11.713-2.931 13.28-5.39 1.803-2.828 1.675-6.152.793-8.044z"/></g><g><path fill="#fff" d="M18.44 19.716c-.098.026-.197.05-.297.074l-.023.005c-.104.024-.21.046-.317.067l-.056.01c-.105.02-.21.04-.318.056l-.057.009c-.11.017-.223.033-.336.047l-.024.003a12.25 12.25 0 0 1-.34.036l-.04.004c-.114.01-.23.018-.347.026l-.062.003c-.116.007-.232.012-.35.016l-.053.001a13.507 13.507 0 0 1-.744 0l-.052-.001a13.512 13.512 0 0 1-.35-.016l-.063-.003a12.822 12.822 0 0 1-.347-.026l-.04-.004c-.114-.01-.227-.023-.34-.036l-.023-.003a11.74 11.74 0 0 1-.336-.047l-.057-.009a10.518 10.518 0 0 1-.319-.055l-.055-.011a9.739 9.739 0 0 1-.317-.067l-.022-.005a9.264 9.264 0 0 1-.3-.075l-.027-.007c.248-1.13 1.51-1.995 3.02-1.995s2.772.864 3.02 1.995l-.028.008zm-2.992 2.804c-1.359 0-2.514-.697-2.915-1.66l.005.002a10.95 10.95 0 0 0 .668.13l.02.004c.102.017.207.032.312.047l.082.01c.101.014.203.027.306.038l.017.002a13.497 13.497 0 0 0 .729.058h.015c.11.006.221.01.333.014l.09.002c.11.002.22.004.33.004h.016a15.367 15.367 0 0 0 .752-.02h.022a13.658 13.658 0 0 0 .72-.058l.03-.003a13.262 13.262 0 0 0 .688-.094l.033-.006a11.825 11.825 0 0 0 .653-.128c.003 0 .006 0 .009-.002-.4.963-1.556 1.66-2.915 1.66zm4.158-2.428v-.004c-.019-1.913-1.88-3.468-4.158-3.468-2.276 0-4.136 1.552-4.157 3.464v.005l-.001.027c0 1.928 1.865 3.497 4.158 3.497s4.158-1.569 4.158-3.497v-.024z"/><path fill="none" stroke="#fff" stroke-miterlimit="20" stroke-width=".6" d="M18.44 19.716c-.098.026-.197.05-.297.074l-.023.005c-.104.024-.21.046-.317.067l-.056.01c-.105.02-.21.04-.318.056l-.057.009c-.11.017-.223.033-.336.047l-.024.003a12.25 12.25 0 0 1-.34.036l-.04.004c-.114.01-.23.018-.347.026l-.062.003c-.116.007-.232.012-.35.016l-.053.001a13.507 13.507 0 0 1-.744 0l-.052-.001a13.512 13.512 0 0 1-.35-.016l-.063-.003a12.822 12.822 0 0 1-.347-.026l-.04-.004c-.114-.01-.227-.023-.34-.036l-.023-.003a11.74 11.74 0 0 1-.336-.047l-.057-.009a10.518 10.518 0 0 1-.319-.055l-.055-.011a9.739 9.739 0 0 1-.317-.067l-.022-.005a9.264 9.264 0 0 1-.3-.075l-.027-.007c.248-1.13 1.51-1.995 3.02-1.995s2.772.864 3.02 1.995l-.028.008zm-2.992 2.804c-1.359 0-2.514-.697-2.915-1.66l.005.002a10.95 10.95 0 0 0 .668.13l.02.004c.102.017.207.032.312.047l.082.01c.101.014.203.027.306.038l.017.002a13.497 13.497 0 0 0 .729.058h.015c.11.006.221.01.333.014l.09.002c.11.002.22.004.33.004h.016a15.367 15.367 0 0 0 .752-.02h.022a13.658 13.658 0 0 0 .72-.058l.03-.003a13.262 13.262 0 0 0 .688-.094l.033-.006a11.825 11.825 0 0 0 .653-.128c.003 0 .006 0 .009-.002-.4.963-1.556 1.66-2.915 1.66zm4.158-2.428v-.004c-.019-1.913-1.88-3.468-4.158-3.468-2.276 0-4.136 1.552-4.157 3.464v.005l-.001.027c0 1.928 1.865 3.497 4.158 3.497s4.158-1.569 4.158-3.497v-.024z"/></g></g></g></svg>