<svg xmlns="http://www.w3.org/2000/svg" width="39" height="34" viewBox="0 0 39 34"><g><g><g><path fill="#fff" d="M27.936 13a.543.543 0 0 0-.98.465c.095.2.143.414.143.637v1.16c0 .82-.667 1.487-1.487 1.487-.82 0-1.487-.667-1.487-1.487v-1.16c0-.82.667-1.487 1.487-1.487a.543.543 0 0 0 0-1.085 2.575 2.575 0 0 0-2.572 2.572v1.16a2.575 2.575 0 0 0 2.572 2.572 2.575 2.575 0 0 0 2.572-2.572v-1.16c0-.385-.083-.757-.248-1.103z"/><path fill="none" stroke="#fff" stroke-miterlimit="20" stroke-width=".6" d="M27.936 13a.543.543 0 0 0-.98.465c.095.2.143.414.143.637v1.16c0 .82-.667 1.487-1.487 1.487-.82 0-1.487-.667-1.487-1.487v-1.16c0-.82.667-1.487 1.487-1.487a.543.543 0 0 0 0-1.085 2.575 2.575 0 0 0-2.572 2.572v1.16a2.575 2.575 0 0 0 2.572 2.572 2.575 2.575 0 0 0 2.572-2.572v-1.16c0-.385-.083-.757-.248-1.103z"/></g><g><path fill="#fff" d="M15.766 13a.543.543 0 0 0-.98.465c.095.2.143.414.143.637v1.16c0 .82-.667 1.487-1.487 1.487-.82 0-1.487-.667-1.487-1.487v-1.16c0-.82.667-1.487 1.487-1.487a.543.543 0 1 0 0-1.085 2.575 2.575 0 0 0-2.572 2.572v1.16a2.575 2.575 0 0 0 2.572 2.572 2.575 2.575 0 0 0 2.572-2.572v-1.16c0-.385-.083-.757-.248-1.103z"/><path fill="none" stroke="#fff" stroke-miterlimit="20" stroke-width=".6" d="M15.766 13a.543.543 0 0 0-.98.465c.095.2.143.414.143.637v1.16c0 .82-.667 1.487-1.487 1.487-.82 0-1.487-.667-1.487-1.487v-1.16c0-.82.667-1.487 1.487-1.487a.543.543 0 1 0 0-1.085 2.575 2.575 0 0 0-2.572 2.572v1.16a2.575 2.575 0 0 0 2.572 2.572 2.575 2.575 0 0 0 2.572-2.572v-1.16c0-.385-.083-.757-.248-1.103z"/></g><g><path fill="#fff" d="M22.463 21.929c0 .871-1.248 1.44-2.16 1.855l-.04.018a1.775 1.775 0 0 1-1.473 0l-.04-.018c-.912-.415-2.16-.984-2.16-1.855 0-.963 1.344-1.777 2.936-1.777 1.592 0 2.937.814 2.937 1.777zm13.193-9.122c.053 2.477-.291 4.17-.59 5.153a.617.617 0 0 1-.451.422.578.578 0 0 1-.56-.157c-1.695-1.756-2.052-4.647-2.398-7.442-.23-1.864-.469-3.791-1.107-5.386a.542.542 0 1 0-1.007.403c.586 1.464.805 3.238 1.037 5.116.297 2.398.602 4.862 1.731 6.784-.234 2.171-1.134 3.856-1.856 4.894-.663.953-1.46 1.773-2.273 2.353-.056-.964-.58-1.854-1.49-2.521-.87-.638-2.005-1.003-3.213-1.036-.345-1.339-1.957-2.323-3.953-2.323-1.995 0-3.607.984-3.952 2.323a6.443 6.443 0 0 0-.767.066.543.543 0 1 0 .16 1.074c.2-.03.405-.048.61-.055.335 1.209 1.747 1.852 2.723 2.297l.04.018a2.861 2.861 0 0 0 2.373 0l.04-.018c.976-.445 2.388-1.088 2.723-2.297 2.016.065 3.627 1.226 3.627 2.644 0 1.46-1.708 2.647-3.807 2.647-1.054 0-2.036-.3-2.766-.841a1.694 1.694 0 0 0-2.007 0c-.73.542-1.712.84-2.766.84-2.099 0-3.806-1.187-3.806-2.646 0-.638.338-1.257.953-1.743a.543.543 0 0 0-.673-.851c-.829.655-1.307 1.51-1.36 2.422-.813-.58-1.61-1.4-2.273-2.353-.722-1.038-1.622-2.723-1.856-4.894 1.129-1.921 1.434-4.385 1.73-6.784.237-1.91.46-3.714 1.069-5.19.63-1.529 1.592-2.466 3.015-2.939 1.156.408 1.928.2 2.893-.06.911-.246 2.046-.552 4.078-.552 2.031 0 3.166.306 4.078.552.572.154 1.076.29 1.633.29.382 0 .789-.064 1.259-.23.77.256 1.399.643 1.916 1.183a.543.543 0 0 0 .784-.75 5.49 5.49 0 0 0-1.321-1.013c.776-.294 1.812-.612 2.669-.612 4.084 0 5.902 5.706 6.327 7.288-.541.392-1.27 1.39-1.216 3.924zm-12.71 17.628c.014-.127.022-.256.022-.387V28.84a6.293 6.293 0 0 0 1.795-.163 5.183 5.183 0 0 1-1.817 1.757zm-1.063-.392a2.357 2.357 0 0 1-4.714 0v-1.35a5.429 5.429 0 0 0 1.815-.766v1.537a.542.542 0 0 0 1.085 0v-1.537c.53.354 1.148.614 1.814.765zm-7.602-1.365a6.4 6.4 0 0 0 1.803.162v1.2c0 .13.008.258.022.384a5.223 5.223 0 0 1-1.825-1.746zM4.998 18.225a.578.578 0 0 1-.56.157.617.617 0 0 1-.452-.422c-.298-.983-.642-2.676-.59-5.153.055-2.534-.674-3.533-1.216-3.924.424-1.582 2.237-7.288 6.328-7.288.856 0 1.89.316 2.665.61-2.914 1.6-3.352 5.141-3.777 8.578-.346 2.795-.703 5.686-2.398 7.442zm33.036-9.167a17.8 17.8 0 0 0-1.575-4.202C34.936 2.013 32.891.51 30.545.51c-1.768 0-4.001 1.07-4.276 1.204-.917.36-1.44.22-2.382-.035-.922-.248-2.185-.589-4.36-.589-2.176 0-3.439.34-4.361.59-.943.254-1.465.394-2.382.034C12.509 1.58 10.276.51 8.508.51c-2.346 0-4.392 1.503-5.915 4.346A17.804 17.804 0 0 0 1.02 9.058c-.034.156-.03.317.07.444a.478.478 0 0 0 .359.204c.116.05.919.49.864 3.078-.056 2.62.315 4.432.635 5.49a1.692 1.692 0 0 0 1.236 1.163 1.646 1.646 0 0 0 1.596-.459c.02-.02.039-.042.058-.063.744 3.54 3.117 6.377 5.33 7.507.251.52.655.994 1.194 1.39.139.101.285.195.437.283.474 1.35 1.709 3.01 3.794 3.75a3.443 3.443 0 0 0 2.934 1.645c1.24 0 2.33-.66 2.935-1.646a6.265 6.265 0 0 0 3.794-3.75c.152-.087.298-.18.437-.283.54-.395.943-.869 1.194-1.39 2.213-1.13 4.586-3.967 5.33-7.506l.058.064a1.646 1.646 0 0 0 1.596.458 1.692 1.692 0 0 0 1.236-1.162c.32-1.06.69-2.871.635-5.49-.055-2.589.748-3.029.864-3.079a.477.477 0 0 0 .36-.204c.098-.127.102-.287.069-.444z"/><path fill="none" stroke="#fff" stroke-miterlimit="20" stroke-width=".6" d="M22.463 21.929c0 .871-1.248 1.44-2.16 1.855l-.04.018a1.775 1.775 0 0 1-1.473 0l-.04-.018c-.912-.415-2.16-.984-2.16-1.855 0-.963 1.344-1.777 2.936-1.777 1.592 0 2.937.814 2.937 1.777zm13.193-9.122c.053 2.477-.291 4.17-.59 5.153a.617.617 0 0 1-.451.422.578.578 0 0 1-.56-.157c-1.695-1.756-2.052-4.647-2.398-7.442-.23-1.864-.469-3.791-1.107-5.386a.542.542 0 1 0-1.007.403c.586 1.464.805 3.238 1.037 5.116.297 2.398.602 4.862 1.731 6.784-.234 2.171-1.134 3.856-1.856 4.894-.663.953-1.46 1.773-2.273 2.353-.056-.964-.58-1.854-1.49-2.521-.87-.638-2.005-1.003-3.213-1.036-.345-1.339-1.957-2.323-3.953-2.323-1.995 0-3.607.984-3.952 2.323a6.443 6.443 0 0 0-.767.066.543.543 0 1 0 .16 1.074c.2-.03.405-.048.61-.055.335 1.209 1.747 1.852 2.723 2.297l.04.018a2.861 2.861 0 0 0 2.373 0l.04-.018c.976-.445 2.388-1.088 2.723-2.297 2.016.065 3.627 1.226 3.627 2.644 0 1.46-1.708 2.647-3.807 2.647-1.054 0-2.036-.3-2.766-.841a1.694 1.694 0 0 0-2.007 0c-.73.542-1.712.84-2.766.84-2.099 0-3.806-1.187-3.806-2.646 0-.638.338-1.257.953-1.743a.543.543 0 0 0-.673-.851c-.829.655-1.307 1.51-1.36 2.422-.813-.58-1.61-1.4-2.273-2.353-.722-1.038-1.622-2.723-1.856-4.894 1.129-1.921 1.434-4.385 1.73-6.784.237-1.91.46-3.714 1.069-5.19.63-1.529 1.592-2.466 3.015-2.939 1.156.408 1.928.2 2.893-.06.911-.246 2.046-.552 4.078-.552 2.031 0 3.166.306 4.078.552.572.154 1.076.29 1.633.29.382 0 .789-.064 1.259-.23.77.256 1.399.643 1.916 1.183a.543.543 0 0 0 .784-.75 5.49 5.49 0 0 0-1.321-1.013c.776-.294 1.812-.612 2.669-.612 4.084 0 5.902 5.706 6.327 7.288-.541.392-1.27 1.39-1.216 3.924zm-12.71 17.628c.014-.127.022-.256.022-.387V28.84a6.293 6.293 0 0 0 1.795-.163 5.183 5.183 0 0 1-1.817 1.757zm-1.063-.392a2.357 2.357 0 0 1-4.714 0v-1.35a5.429 5.429 0 0 0 1.815-.766v1.537a.542.542 0 0 0 1.085 0v-1.537c.53.354 1.148.614 1.814.765zm-7.602-1.365a6.4 6.4 0 0 0 1.803.162v1.2c0 .13.008.258.022.384a5.223 5.223 0 0 1-1.825-1.746zM4.998 18.225a.578.578 0 0 1-.56.157.617.617 0 0 1-.452-.422c-.298-.983-.642-2.676-.59-5.153.055-2.534-.674-3.533-1.216-3.924.424-1.582 2.237-7.288 6.328-7.288.856 0 1.89.316 2.665.61-2.914 1.6-3.352 5.141-3.777 8.578-.346 2.795-.703 5.686-2.398 7.442zm33.036-9.167a17.8 17.8 0 0 0-1.575-4.202C34.936 2.013 32.891.51 30.545.51c-1.768 0-4.001 1.07-4.276 1.204-.917.36-1.44.22-2.382-.035-.922-.248-2.185-.589-4.36-.589-2.176 0-3.439.34-4.361.59-.943.254-1.465.394-2.382.034C12.509 1.58 10.276.51 8.508.51c-2.346 0-4.392 1.503-5.915 4.346A17.804 17.804 0 0 0 1.02 9.058c-.034.156-.03.317.07.444a.478.478 0 0 0 .359.204c.116.05.919.49.864 3.078-.056 2.62.315 4.432.635 5.49a1.692 1.692 0 0 0 1.236 1.163 1.646 1.646 0 0 0 1.596-.459c.02-.02.039-.042.058-.063.744 3.54 3.117 6.377 5.33 7.507.251.52.655.994 1.194 1.39.139.101.285.195.437.283.474 1.35 1.709 3.01 3.794 3.75a3.443 3.443 0 0 0 2.934 1.645c1.24 0 2.33-.66 2.935-1.646a6.265 6.265 0 0 0 3.794-3.75c.152-.087.298-.18.437-.283.54-.395.943-.869 1.194-1.39 2.213-1.13 4.586-3.967 5.33-7.506l.058.064a1.646 1.646 0 0 0 1.596.458 1.692 1.692 0 0 0 1.236-1.162c.32-1.06.69-2.871.635-5.49-.055-2.589.748-3.029.864-3.079a.477.477 0 0 0 .36-.204c.098-.127.102-.287.069-.444z"/></g></g></g></svg>