<svg xmlns="http://www.w3.org/2000/svg" width="38" height="35" viewBox="0 0 38 35"><g><g><g><path fill="#fff" d="M13.042 17.4a.522.522 0 0 0-.522.522v1.11a.522.522 0 0 0 1.044 0v-1.11a.522.522 0 0 0-.522-.522z"/><path fill="none" stroke="#fff" stroke-miterlimit="20" stroke-width=".6" d="M13.042 17.4a.522.522 0 0 0-.522.522v1.11a.522.522 0 0 0 1.044 0v-1.11a.522.522 0 0 0-.522-.522z"/></g><g><path fill="#fff" d="M25.312 17.4a.522.522 0 0 0-.522.522v1.11a.522.522 0 0 0 1.044 0v-1.11a.522.522 0 0 0-.522-.522z"/><path fill="none" stroke="#fff" stroke-miterlimit="20" stroke-width=".6" d="M25.312 17.4a.522.522 0 0 0-.522.522v1.11a.522.522 0 0 0 1.044 0v-1.11a.522.522 0 0 0-.522-.522z"/></g><g><path fill="#fff" d="M21.033 18.56a.522.522 0 0 0-.737.049 1.48 1.48 0 0 1-1.12.49 1.48 1.48 0 0 1-1.12-.49.522.522 0 1 0-.787.687 2.524 2.524 0 0 0 1.907.848c.74 0 1.435-.31 1.906-.848a.522.522 0 0 0-.05-.737z"/><path fill="none" stroke="#fff" stroke-miterlimit="20" stroke-width=".6" d="M21.033 18.56a.522.522 0 0 0-.737.049 1.48 1.48 0 0 1-1.12.49 1.48 1.48 0 0 1-1.12-.49.522.522 0 1 0-.787.687 2.524 2.524 0 0 0 1.907.848c.74 0 1.435-.31 1.906-.848a.522.522 0 0 0-.05-.737z"/></g><g><path fill="#fff" d="M11.016 23.031a3.634 3.634 0 0 1-1.375-1.192.522.522 0 0 0-.878.566 4.684 4.684 0 0 0 1.796 1.565.522.522 0 1 0 .457-.94z"/><path fill="none" stroke="#fff" stroke-miterlimit="20" stroke-width=".6" d="M11.016 23.031a3.634 3.634 0 0 1-1.375-1.192.522.522 0 0 0-.878.566 4.684 4.684 0 0 0 1.796 1.565.522.522 0 1 0 .457-.94z"/></g><g><path fill="#fff" d="M11.921 21.623a2.783 2.783 0 0 1-1.001-.856.522.522 0 0 0-.877.568c.021.032.515.786 1.421 1.227a.52.52 0 0 0 .698-.24.522.522 0 0 0-.24-.699z"/><path fill="none" stroke="#fff" stroke-miterlimit="20" stroke-width=".6" d="M11.921 21.623a2.783 2.783 0 0 1-1.001-.856.522.522 0 0 0-.877.568c.021.032.515.786 1.421 1.227a.52.52 0 0 0 .698-.24.522.522 0 0 0-.24-.699z"/></g><g><path fill="#fff" d="M29.441 21.683a.522.522 0 0 0-.722.156c-.05.078-.516.775-1.375 1.192a.522.522 0 0 0-.241.698.528.528 0 0 0 .698.241 4.686 4.686 0 0 0 1.796-1.565.522.522 0 0 0-.156-.722z"/><path fill="none" stroke="#fff" stroke-miterlimit="20" stroke-width=".6" d="M29.441 21.683a.522.522 0 0 0-.722.156c-.05.078-.516.775-1.375 1.192a.522.522 0 0 0-.241.698.528.528 0 0 0 .698.241 4.686 4.686 0 0 0 1.796-1.565.522.522 0 0 0-.156-.722z"/></g><g><path fill="#fff" d="M28.156 20.613a.522.522 0 0 0-.722.156 2.771 2.771 0 0 1-1 .854.522.522 0 1 0 .457.94 3.815 3.815 0 0 0 1.42-1.228.522.522 0 0 0-.155-.722z"/><path fill="none" stroke="#fff" stroke-miterlimit="20" stroke-width=".6" d="M28.156 20.613a.522.522 0 0 0-.722.156 2.771 2.771 0 0 1-1 .854.522.522 0 1 0 .457.94 3.815 3.815 0 0 0 1.42-1.228.522.522 0 0 0-.155-.722z"/></g><g><path fill="#fff" d="M35.62 19.353c-.207.193-.533.296-.943.296a.522.522 0 0 0-.383.877c.424.455.55 1.048.349 1.627-.19.544-.632.944-1.126 1.018-.524.08-1.083-.209-1.593-.813a9.186 9.186 0 0 0 .408-2.352c0-.013 0-.026.002-.04.632-.108 1.397-.31 2.053-.687a.522.522 0 0 0-.52-.906c-.468.27-1.023.431-1.518.529-.01-.468-.042-.932-.095-1.392 1.047-.801 1.765-1.497 2.136-2.07a.522.522 0 0 0-.876-.568c-.248.382-.75.886-1.445 1.453a14.54 14.54 0 0 0-.348-1.388c.98-1.505 2.268-1.95 3.099-1.865.536.054.926.319 1.068.725.264.753-.292 1.9-1.485 3.07a.522.522 0 0 0 .365.895c.722 0 1.1.503 1.1 1a.8.8 0 0 1-.249.59zM16.774 31.899c-.865.56-1.973.895-2.962.895-1.376 0-1.897-1.207-2.641-2.135-.853-1.064-2.255-1.175-3.499-1.41-.776-.147-1.332-.977-.888-1.713.336-.556 1.067-.839 2.172-.839.753 0 1.535.131 2.143.25.076.032.153.061.23.092a20.93 20.93 0 0 0 1.654.588c-.441.313-1.051.665-1.74.826a.521.521 0 0 0-.389.627.529.529 0 0 0 .628.388c1.289-.303 2.312-1.111 2.747-1.5l.048.01c.628.15 1.261.27 1.9.361-.245.55-.702 1.375-1.429 1.95a.52.52 0 1 0 .649.818c1.044-.827 1.615-2.018 1.86-2.643a21.45 21.45 0 0 0 2.198.084c-.689 1.519-1.588 2.644-2.68 3.35zm-12.82-16.46c.372.573 1.09 1.27 2.137 2.07-.053.461-.084.926-.094 1.393-.494-.098-1.05-.26-1.52-.529a.522.522 0 1 0-.519.906c.656.377 1.422.579 2.054.687l.001.04c.045.862.18 1.643.408 2.351-.51.605-1.069.893-1.593.814-.494-.074-.936-.474-1.126-1.018a1.567 1.567 0 0 1 .349-1.627.522.522 0 0 0-.383-.878c-.41 0-.736-.102-.942-.295a.8.8 0 0 1-.248-.592c0-.496.377-1 1.099-1a.522.522 0 0 0 .365-.895c-1.193-1.169-1.749-2.316-1.485-3.069.142-.406.532-.67 1.069-.725.829-.085 2.116.36 3.095 1.86-.138.456-.254.92-.347 1.391-.693-.566-1.195-1.07-1.442-1.451a.522.522 0 0 0-.877.567zM20.839 5.64a13.996 13.996 0 0 0-2.904-.044l-.023.002c-.135.012-.27.026-.403.042-.385-1.009-.533-2.24-.053-2.99.312-.49.89-.737 1.718-.737.827 0 1.405.248 1.718.736.48.75.331 1.982-.053 2.991zm14.926 11.297c1.418-1.676 1.321-2.881 1.11-3.486-.278-.793-1.006-1.323-1.949-1.42-.708-.071-1.491.112-2.205.517a5.26 5.26 0 0 0-1.418 1.202 13.408 13.408 0 0 0-2.696-4.227 12.69 12.69 0 0 0-6.72-3.712c.179-.518.296-1.052.336-1.552.067-.856-.09-1.607-.452-2.173C21.415 1.532 20.676.87 19.173.87s-2.242.662-2.598 1.217c-.362.566-.518 1.317-.45 2.173.038.499.156 1.032.334 1.55-.94.19-1.848.48-2.717.87a.522.522 0 0 0 .428.953c.976-.439 2.007-.74 3.08-.903l.01-.001a13.19 13.19 0 0 1 3.457-.05l.013.002c4.705.564 8.593 3.983 9.98 8.478.478 1.546.663 3.177.579 4.792-.156 2.984-1.471 4.782-4.398 6.012-4.884 2.053-10.55 2.053-15.436 0-2.927-1.23-4.243-3.028-4.398-6.012-.229-4.37 1.651-8.79 5.304-11.301a.522.522 0 1 0-.591-.86c-1.873 1.287-3.395 3.084-4.4 5.199-.118.248-.228.5-.33.756a5.254 5.254 0 0 0-1.414-1.197c-.714-.404-1.497-.588-2.205-.516-.943.096-1.671.627-1.95 1.42-.21.604-.307 1.81 1.111 3.486a2.027 2.027 0 0 0-1.148 1.823c0 .523.205 1.003.578 1.353.168.158.42.333.777.449a2.605 2.605 0 0 0-.072 1.934c.336.96 1.237 1.73 2.282 1.73.483 0 1.16-.156 1.862-.815.453.87 1.09 1.61 1.927 2.244-1.405.033-2.38.484-2.898 1.343-.809 1.344.101 2.998 1.589 3.28.968.183 2.206.2 2.878 1.04.484.605.828 1.297 1.432 1.802a3.123 3.123 0 0 0 2.024.727c1.2 0 2.487-.388 3.53-1.065 1.378-.893 2.476-2.332 3.269-4.28a20.77 20.77 0 0 0 6.683-1.577c2.026-.852 3.393-1.984 4.19-3.514.582.547 1.376.914 2.188.792.872-.132 1.64-.802 1.955-1.707a2.605 2.605 0 0 0-.072-1.934c.359-.116.61-.291.778-.449.372-.35.578-.83.578-1.353a2.026 2.026 0 0 0-1.148-1.823z"/><path fill="none" stroke="#fff" stroke-miterlimit="20" stroke-width=".6" d="M35.62 19.353c-.207.193-.533.296-.943.296a.522.522 0 0 0-.383.877c.424.455.55 1.048.349 1.627-.19.544-.632.944-1.126 1.018-.524.08-1.083-.209-1.593-.813a9.186 9.186 0 0 0 .408-2.352c0-.013 0-.026.002-.04.632-.108 1.397-.31 2.053-.687a.522.522 0 0 0-.52-.906c-.468.27-1.023.431-1.518.529-.01-.468-.042-.932-.095-1.392 1.047-.801 1.765-1.497 2.136-2.07a.522.522 0 0 0-.876-.568c-.248.382-.75.886-1.445 1.453a14.54 14.54 0 0 0-.348-1.388c.98-1.505 2.268-1.95 3.099-1.865.536.054.926.319 1.068.725.264.753-.292 1.9-1.485 3.07a.522.522 0 0 0 .365.895c.722 0 1.1.503 1.1 1a.8.8 0 0 1-.249.59zM16.774 31.899c-.865.56-1.973.895-2.962.895-1.376 0-1.897-1.207-2.641-2.135-.853-1.064-2.255-1.175-3.499-1.41-.776-.147-1.332-.977-.888-1.713.336-.556 1.067-.839 2.172-.839.753 0 1.535.131 2.143.25.076.032.153.061.23.092a20.93 20.93 0 0 0 1.654.588c-.441.313-1.051.665-1.74.826a.521.521 0 0 0-.389.627.529.529 0 0 0 .628.388c1.289-.303 2.312-1.111 2.747-1.5l.048.01c.628.15 1.261.27 1.9.361-.245.55-.702 1.375-1.429 1.95a.52.52 0 1 0 .649.818c1.044-.827 1.615-2.018 1.86-2.643a21.45 21.45 0 0 0 2.198.084c-.689 1.519-1.588 2.644-2.68 3.35zm-12.82-16.46c.372.573 1.09 1.27 2.137 2.07-.053.461-.084.926-.094 1.393-.494-.098-1.05-.26-1.52-.529a.522.522 0 1 0-.519.906c.656.377 1.422.579 2.054.687l.001.04c.045.862.18 1.643.408 2.351-.51.605-1.069.893-1.593.814-.494-.074-.936-.474-1.126-1.018a1.567 1.567 0 0 1 .349-1.627.522.522 0 0 0-.383-.878c-.41 0-.736-.102-.942-.295a.8.8 0 0 1-.248-.592c0-.496.377-1 1.099-1a.522.522 0 0 0 .365-.895c-1.193-1.169-1.749-2.316-1.485-3.069.142-.406.532-.67 1.069-.725.829-.085 2.116.36 3.095 1.86-.138.456-.254.92-.347 1.391-.693-.566-1.195-1.07-1.442-1.451a.522.522 0 0 0-.877.567zM20.839 5.64a13.996 13.996 0 0 0-2.904-.044l-.023.002c-.135.012-.27.026-.403.042-.385-1.009-.533-2.24-.053-2.99.312-.49.89-.737 1.718-.737.827 0 1.405.248 1.718.736.48.75.331 1.982-.053 2.991zm14.926 11.297c1.418-1.676 1.321-2.881 1.11-3.486-.278-.793-1.006-1.323-1.949-1.42-.708-.071-1.491.112-2.205.517a5.26 5.26 0 0 0-1.418 1.202 13.408 13.408 0 0 0-2.696-4.227 12.69 12.69 0 0 0-6.72-3.712c.179-.518.296-1.052.336-1.552.067-.856-.09-1.607-.452-2.173C21.415 1.532 20.676.87 19.173.87s-2.242.662-2.598 1.217c-.362.566-.518 1.317-.45 2.173.038.499.156 1.032.334 1.55-.94.19-1.848.48-2.717.87a.522.522 0 0 0 .428.953c.976-.439 2.007-.74 3.08-.903l.01-.001a13.19 13.19 0 0 1 3.457-.05l.013.002c4.705.564 8.593 3.983 9.98 8.478.478 1.546.663 3.177.579 4.792-.156 2.984-1.471 4.782-4.398 6.012-4.884 2.053-10.55 2.053-15.436 0-2.927-1.23-4.243-3.028-4.398-6.012-.229-4.37 1.651-8.79 5.304-11.301a.522.522 0 1 0-.591-.86c-1.873 1.287-3.395 3.084-4.4 5.199-.118.248-.228.5-.33.756a5.254 5.254 0 0 0-1.414-1.197c-.714-.404-1.497-.588-2.205-.516-.943.096-1.671.627-1.95 1.42-.21.604-.307 1.81 1.111 3.486a2.027 2.027 0 0 0-1.148 1.823c0 .523.205 1.003.578 1.353.168.158.42.333.777.449a2.605 2.605 0 0 0-.072 1.934c.336.96 1.237 1.73 2.282 1.73.483 0 1.16-.156 1.862-.815.453.87 1.09 1.61 1.927 2.244-1.405.033-2.38.484-2.898 1.343-.809 1.344.101 2.998 1.589 3.28.968.183 2.206.2 2.878 1.04.484.605.828 1.297 1.432 1.802a3.123 3.123 0 0 0 2.024.727c1.2 0 2.487-.388 3.53-1.065 1.378-.893 2.476-2.332 3.269-4.28a20.77 20.77 0 0 0 6.683-1.577c2.026-.852 3.393-1.984 4.19-3.514.582.547 1.376.914 2.188.792.872-.132 1.64-.802 1.955-1.707a2.605 2.605 0 0 0-.072-1.934c.359-.116.61-.291.778-.449.372-.35.578-.83.578-1.353a2.026 2.026 0 0 0-1.148-1.823z"/></g><g><path fill="#fff" d="M30.785 8.975a.971.971 0 0 1 0-1.94.971.971 0 0 1 0 1.94zm0-2.985c-1.111 0-2.015.904-2.015 2.015 0 1.11.904 2.014 2.015 2.014 1.11 0 2.014-.904 2.014-2.014 0-1.111-.903-2.015-2.014-2.015z"/><path fill="none" stroke="#fff" stroke-miterlimit="20" stroke-width=".6" d="M30.785 8.975a.971.971 0 0 1 0-1.94.971.971 0 0 1 0 1.94zm0-2.985c-1.111 0-2.015.904-2.015 2.015 0 1.11.904 2.014 2.015 2.014 1.11 0 2.014-.904 2.014-2.014 0-1.111-.903-2.015-2.014-2.015z"/></g><g><path fill="#fff" d="M28.698 5.022a.605.605 0 1 1 .002-1.209.605.605 0 0 1-.002 1.21zm0-2.252a1.65 1.65 0 0 0-1.648 1.648c0 .909.74 1.648 1.648 1.648a1.65 1.65 0 0 0 1.648-1.648 1.65 1.65 0 0 0-1.648-1.648z"/><path fill="none" stroke="#fff" stroke-miterlimit="20" stroke-width=".6" d="M28.698 5.022a.605.605 0 1 1 .002-1.209.605.605 0 0 1-.002 1.21zm0-2.252a1.65 1.65 0 0 0-1.648 1.648c0 .909.74 1.648 1.648 1.648a1.65 1.65 0 0 0 1.648-1.648 1.65 1.65 0 0 0-1.648-1.648z"/></g><g><path fill="#fff" d="M32.368 3.122a.605.605 0 1 1 .002-1.209.605.605 0 0 1-.002 1.21zm0-2.252a1.65 1.65 0 0 0-1.648 1.648c0 .909.74 1.648 1.648 1.648a1.65 1.65 0 0 0 1.648-1.648A1.65 1.65 0 0 0 32.368.87z"/><path fill="none" stroke="#fff" stroke-miterlimit="20" stroke-width=".6" d="M32.368 3.122a.605.605 0 1 1 .002-1.209.605.605 0 0 1-.002 1.21zm0-2.252a1.65 1.65 0 0 0-1.648 1.648c0 .909.74 1.648 1.648 1.648a1.65 1.65 0 0 0 1.648-1.648A1.65 1.65 0 0 0 32.368.87z"/></g></g></g></svg>