<svg xmlns="http://www.w3.org/2000/svg" width="13" height="17" viewBox="0 0 13 17"><g><g><path fill="#68d6f4" d="M6.495 7.946a1.489 1.489 0 0 1-1.478-1.5c0-.832.664-1.5 1.478-1.5s1.478.668 1.478 1.5c0 .831-.664 1.5-1.478 1.5zM6.5 3.82a2.649 2.649 0 0 0-2.65 2.64A2.635 2.635 0 0 0 6.5 9.088c1.467 0 2.65-1.19 2.65-2.641A2.635 2.635 0 0 0 6.5 3.82zm.005 10.575a24.539 24.539 0 0 1-1.869-2.285c-1.502-2.088-2.303-3.949-2.303-5.4 0-4.08 3.187-4.407 4.172-4.407 3.871 0 4.172 3.378 4.172 4.406 0 2.872-2.987 6.413-4.172 7.686zm3.728-12.108C9.283 1.457 7.95 1 6.5 1c-1.45 0-2.783.457-3.733 1.288C1.6 3.298 1 4.815 1 6.707c0 4.092 4.817 8.902 5.033 9.097.134.13.3.196.467.196.167 0 .35-.065.467-.196C7.183 15.61 12 10.8 12 6.707c0-1.892-.6-3.408-1.767-4.419z"/><path fill="none" stroke="#68d6f4" stroke-miterlimit="20" stroke-width=".3" d="M6.495 7.946a1.489 1.489 0 0 1-1.478-1.5c0-.832.664-1.5 1.478-1.5s1.478.668 1.478 1.5c0 .831-.664 1.5-1.478 1.5zM6.5 3.82a2.649 2.649 0 0 0-2.65 2.64A2.635 2.635 0 0 0 6.5 9.088c1.467 0 2.65-1.19 2.65-2.641A2.635 2.635 0 0 0 6.5 3.82zm.005 10.575a24.539 24.539 0 0 1-1.869-2.285c-1.502-2.088-2.303-3.949-2.303-5.4 0-4.08 3.187-4.407 4.172-4.407 3.871 0 4.172 3.378 4.172 4.406 0 2.872-2.987 6.413-4.172 7.686zm3.728-12.108C9.283 1.457 7.95 1 6.5 1c-1.45 0-2.783.457-3.733 1.288C1.6 3.298 1 4.815 1 6.707c0 4.092 4.817 8.902 5.033 9.097.134.13.3.196.467.196.167 0 .35-.065.467-.196C7.183 15.61 12 10.8 12 6.707c0-1.892-.6-3.408-1.767-4.419z"/></g></g></svg>