<svg xmlns="http://www.w3.org/2000/svg" width="210" height="64" viewBox="0 0 210 64"><g><g><g><path fill="#572f8c" d="M47.478 40.402c0 12.888-10.614 23.31-23.739 23.31S0 53.29 0 40.402V27.29h47.478v13.112z"/></g><g><path fill="#fff" d="M34.634 40.397c.628-5.883-1.199-12.776-3.082-16.866 0 0 17.52-15.13 9.188-19.668-8.218-4.595-15.921 15.185-15.921 15.185h-2.854S14.262-.732 5.987 3.807c-8.331 4.538 9.188 19.724 9.188 19.724-1.884 4.09-3.653 10.983-3.082 16.866h22.54z"/></g><g><path fill="#fff" d="M23.743 31.49c5.022 0 9.074 3.978 9.074 8.91 0 4.93-4.052 8.909-9.074 8.909-5.021 0-9.073-3.978-9.073-8.91.057-4.93 4.109-8.909 9.073-8.909z"/></g><g><path fill="#572f8c" d="M26.707 28.687v4.476c0 .503-.285.95-.97.95-.514 0-.97-.447-.97-.95v-4.476c0-.56.4-.951.97-.951.514 0 .97.448.97.951zm-6.905 11.6c-.8-3.305 8.685-3.305 7.885 0-.285 1.121-1.2 2.298-2.514 3.25-1.314 1.065-1.371 1.121-2.742.113-1.315-1.009-2.343-2.13-2.629-3.362zm-2.228 6.108c1.597 1.57 3.708 2.522 6.104 2.522s4.564-.953 6.104-2.522c1.597-1.569 2.567-3.642 2.567-5.995.057-4.035-.628-8.63-1.483-12.328-.228-.84-.4-1.513-.57-2.073-.172-.56-.343-1.12-.571-1.737v-.056l-.57-1.57 1.311-1.12s7.474-6.444 9.47-11.767c.4-1.12.4-2.017.114-2.69a1.888 1.888 0 0 0-.855-1.008c-.4-.337-.856-.449-1.312-.505-.856-.056-1.826.28-2.739 1.065-4.335 3.754-7.587 12.72-7.587 12.72l-.628 1.68h-6.56l-.628-1.68s-3.194-8.966-7.53-12.664c-.913-.784-1.883-1.12-2.738-1.065-.514 0-.97.168-1.37.393-.342.224-.684.56-.855 1.008-.285.673-.285 1.625.114 2.69 1.997 5.323 9.413 11.767 9.47 11.767l1.312 1.12-.57 1.626c-.97 2.745-1.997 7.06-2.396 11.43-.058.841-.172 1.682-.172 2.522V40.4c.057 2.353 1.027 4.483 2.568 5.995zm19.918-5.547c-.114 3.586-1.654 6.78-3.994 9.134a13.838 13.838 0 0 1-9.758 3.978 13.838 13.838 0 0 1-9.758-3.978 13.27 13.27 0 0 1-3.995-9.078H9.93v-2.802c.057-.952.114-1.849.171-2.801.4-4.035 1.256-8.07 2.169-11.095-2.397-2.41-7.761-7.789-9.587-12.776-.913-2.41-.8-4.595 0-6.388.57-1.345 1.54-2.466 2.682-3.25C6.506 1.008 7.933.559 9.416.503c2.055-.056 4.28.617 6.278 2.354 3.709 3.25 6.62 9.133 8.046 12.383 1.426-3.306 4.337-9.19 8.046-12.383 1.997-1.681 4.223-2.41 6.277-2.298a7.864 7.864 0 0 1 4.052 1.289 6.916 6.916 0 0 1 2.682 3.25c.742 1.793.856 3.978 0 6.388-1.883 4.875-7.247 10.31-9.701 12.608l.17.504c.23.84.457 1.625.629 2.297.97 4.035 1.712 9.022 1.597 13.505v.448zm-14.665-12.16v4.475c0 .503-.286.95-.97.95-.514 0-.97-.447-.97-.95v-4.476c.057-.56.456-.951.97-.951.513 0 .97.448.97.951z"/></g><g><path fill="#572f8c" d="M172.565 32.67v7.116h3.818c4.56 0 4.56-7.117 0-7.117zM72.473 27.29h7.19l-7.304 10.815 8.502 11.599h-7.818L66.31 39.73c-.571-.84-.571-1.906 0-2.802zm-7.533 0v22.358h-6.22V27.29zm53.641 8.685V27.29h6.22v22.414h-6.22v-8.461h-7.703v8.46h-6.22V27.29h6.22v8.685zm-19.288 5.212h-11.07v3.418h12.326v5.155H85.084c-1.712 0-3.081-1.345-3.081-2.97V30.26c0-1.625 1.37-2.97 3.081-2.97h15.35v5.155H88.224v3.53h11.07zm89.935 8.517l3.938-7.173-8.731-15.241h7.019l5.021 9.414 5.022-9.414h6.905l-12.497 22.414h-6.677zM132.677 27.29c5.25 0 10.442 0 15.692.056l5.022 9.414 5.022-9.414h6.905L152.82 49.76h-6.677l3.937-7.173-5.592-9.806h-8.674v16.923h-6.22V30.26c0-1.625 1.37-2.97 3.082-2.97zm39.945 17.707v4.707h-6.22V30.26c0-1.625 1.37-2.97 3.082-2.97h7.304c5.935 0 9.016 4.427 9.016 8.91 0 4.426-3.081 8.797-9.016 8.797z"/></g><g><g><path fill="#572f8c" d="M58.89 53.74h7.076v1.513h-2.682v5.828h-1.655v-5.828h-2.682V53.74z"/></g><g><path fill="#572f8c" d="M67.852 57.436c0-1.457.97-2.353 2.283-2.353 1.312 0 2.34.953 2.34 2.353 0 1.401-.97 2.298-2.34 2.298-1.37 0-2.283-1.009-2.283-2.298zm-1.712-.056c0 2.186 1.655 3.81 3.995 3.81s3.994-1.624 3.994-3.81c0-2.185-1.655-3.81-3.994-3.81-2.397 0-3.995 1.625-3.995 3.81z"/></g><g><path fill="#572f8c" d="M76.985 58.055h1.832c.973 0 1.43.224 1.43.784s-.515.785-1.488.785h-1.774zm1.546-2.858c.916 0 1.488.111 1.488.723 0 .501-.4.724-1.087.724h-1.947v-1.447zm-3.201 5.94h3.481c1.883 0 3.024-.729 3.024-2.186 0-.84-.342-1.457-1.027-1.737.514-.392.856-.84.856-1.513 0-1.457-1.084-1.961-3.138-1.961H75.33z"/></g><g><path fill="#572f8c" d="M85.659 59.734c-.8 0-1.37-.392-1.37-.953 0-.728.799-.952 1.997-.952.514 0 1.085.112 1.37.224v.728c-.343.505-.97 1.009-1.997.953zm-1.884-3.867c.742-.56 1.37-.784 2.169-.784 1.198 0 1.598.616 1.598 1.681-.343-.112-1.027-.224-1.541-.224-1.94 0-3.481.728-3.481 2.353 0 1.401 1.084 2.298 2.74 2.298 1.14 0 1.882-.393 2.339-.897v.785h1.655v-4.483c0-1.905-1.085-3.026-3.082-3.026-1.198 0-2.454.392-3.138 1.065z"/></g><g><path fill="#572f8c" d="M94.273 55.027c1.316 0 2.116.84 2.116 2.353 0 1.345-.915 2.298-2.23 2.298-.744 0-1.43-.28-1.774-.897V56.26c.286-.617.972-1.177 1.888-1.233zM90.73 63.88h1.655v-3.306c.285.393 1.084.617 1.94.617 2.283 0 3.766-1.681 3.766-3.923 0-2.129-1.426-3.698-3.652-3.698-.742 0-1.598.28-2.054.84v-.672H90.73z"/></g><g><path fill="#572f8c" d="M106.138 61.08h1.655v-7.34h-1.655zm-4.052-3.698c1.142 0 1.598.392 1.598 1.12 0 .73-.4 1.122-1.598 1.122h-1.141v-2.242zm-2.796 3.699h2.853c2.454 0 3.31-1.29 3.31-2.634 0-1.401-.799-2.578-3.196-2.578h-1.312V53.74H99.29z"/></g><g><path fill="#572f8c" d="M115.273 55.193h2.568v4.37h-3.253c.4-.896.685-2.409.685-3.754zm-3.253 7.565h1.54v-1.681h5.365v1.68h1.54v-3.193h-1.027V53.68h-5.706v1.289c0 1.905-.171 3.418-.856 4.595h-.856z"/></g><g><path fill="#572f8c" d="M126.518 55.253h-2.625v1.12c0 3.923-1.313 4.932-3.139 4.764l-.114-1.513c.799.056 1.655-.393 1.655-3.81V53.74h5.878v7.34h-1.655v-5.827z"/></g><g><path fill="#572f8c" d="M131.248 56.206c0-.617.4-1.01 1.484-1.01h1.598v1.962h-1.655c-.97 0-1.484-.392-1.427-.952zm1.598-2.466c-2.453 0-3.31 1.12-3.31 2.41 0 1.12.628 2.017 1.712 2.24l-2.168 2.69h1.94l1.883-2.409h1.37v2.41h1.655V53.74z"/></g><g><path fill="#572f8c" d="M140.1 53.74h2.054l2.625 2.858V53.74h1.655v2.858l2.682-2.858h1.998l-3.139 3.362 3.196 4.035h-1.998l-2.396-3.138-.343.336v2.802h-1.655V58.39l-.342-.336-2.397 3.138h-1.94l3.139-3.979z"/></g><g><path fill="#572f8c" d="M151.79 61.08v-7.34h1.655v4.819l3.994-4.819h1.427v7.34h-1.655v-4.762l-3.994 4.763z"/></g><g><path fill="#572f8c" d="M162.062 58.055h1.826c.97 0 1.427.224 1.427.784s-.514.785-1.484.785h-1.769zm1.546-2.858c.916 0 1.488.111 1.488.723 0 .501-.4.724-1.087.724h-1.947v-1.447zm-3.258-1.457v7.397h3.538c1.883 0 3.024-.729 3.024-2.186 0-.84-.342-1.457-1.027-1.737.514-.392.856-.84.856-1.513 0-1.457-1.084-1.961-3.138-1.961z"/></g><g><path fill="#572f8c" d="M169.482 57.436c0-1.457.97-2.353 2.283-2.353 1.312 0 2.34.953 2.34 2.353 0 1.401-.97 2.298-2.34 2.298-1.37 0-2.283-1.009-2.283-2.298zm-1.712-.056c0 2.186 1.655 3.81 3.995 3.81s3.994-1.624 3.994-3.81c0-2.185-1.655-3.81-3.994-3.81-2.34 0-3.995 1.625-3.995 3.81z"/></g><g><path fill="#572f8c" d="M175.93 53.74h7.076v1.513h-2.682v5.828h-1.655v-5.828h-2.682V53.74z"/></g><g><path fill="#572f8c" d="M189.06 58.11h-3.595v2.97h-1.655v-7.34h1.655v2.858h3.595V53.74h1.655v7.34h-1.655z"/></g><g><path fill="#572f8c" d="M199.098 61.08h1.655v-7.34h-1.655zm-4.052-3.698c1.142 0 1.598.392 1.598 1.12 0 .73-.4 1.122-1.598 1.122h-1.141v-2.242zm-2.739-3.642v7.34h2.796c2.454 0 3.31-1.288 3.31-2.633 0-1.401-.799-2.578-3.196-2.578h-1.312V53.74z"/></g><g><path fill="#572f8c" d="M206.519 57.27l3.024 3.81h-2.054l-2.054-2.633-2.055 2.634h-1.94l3.024-3.755-2.853-3.586h1.997l1.884 2.353 1.883-2.353h1.997z"/></g></g></g></g></svg>