<svg xmlns="http://www.w3.org/2000/svg" width="226" height="70" viewBox="0 0 226 70"><g><g><g><path fill="#68d6f4" d="M51.102 43.875c0 13.987-11.44 25.325-25.551 25.325C11.44 69.2 0 57.862 0 43.875V29.65h51.102z"/></g><g><path fill="#fff" d="M37.313 43.87c.65-6.379-1.29-13.884-3.298-18.334 0 0 18.835-16.435 9.9-21.377C34.978-.784 26.712 20.69 26.712 20.69h-3.071S15.357-.772 6.446 4.159c-8.91 4.93 9.9 21.402 9.9 21.402-2.002 4.45-3.949 11.954-3.292 18.333z"/></g><g><path fill="#fff" d="M25.55 34.23c5.375.003 9.73 4.324 9.728 9.652-.002 5.327-4.361 9.645-9.736 9.644-5.375-.001-9.732-4.32-9.732-9.648.003-5.33 4.363-9.648 9.74-9.648z"/></g><g><path fill="#572f8c" d="M28.719 31.132v4.87a.936.936 0 0 1-.277.75.964.964 0 0 1-.76.272 1.036 1.036 0 0 1-1.036-1.022v-4.87a1.036 1.036 0 0 1 1.036-1.023c.571.004 1.033.46 1.037 1.023zm-7.427 12.606c-.818-3.56 9.343-3.56 8.526 0-.29 1.278-1.267 2.453-2.711 3.56-1.445 1.109-1.519 1.182-2.97.098-1.45-1.083-2.544-2.337-2.845-3.652zm-5.115.14h.05c0 2.448.983 4.796 2.731 6.525a9.33 9.33 0 0 0 6.589 2.721c5.143-.013 9.31-4.141 9.326-9.24a56.144 56.144 0 0 0-1.615-13.391 32.46 32.46 0 0 0-.614-2.246 31.528 31.528 0 0 0-.614-1.881v-.037l-.614-1.728 1.407-1.218s8.049-7.055 10.161-12.825c.412-.935.452-1.99.11-2.952a2.44 2.44 0 0 0-.908-1.096 2.786 2.786 0 0 0-1.449-.45 4.318 4.318 0 0 0-2.941 1.18c-4.636 4.042-8.111 13.757-8.123 13.782l-.651 1.826h-6.987l-.651-1.826s-3.457-9.74-8.13-13.781a4.318 4.318 0 0 0-2.94-1.181 2.786 2.786 0 0 0-1.45.45 2.44 2.44 0 0 0-.908 1.096 4.003 4.003 0 0 0 .11 2.952c2.125 5.77 10.15 12.783 10.174 12.783l1.406 1.217-.614 1.74a55.332 55.332 0 0 0-2.634 12.455 51.09 51.09 0 0 0-.19 2.757c-.031.816-.043 1.607-.031 2.374zm24.206 0v.487c-.252 7.919-6.807 14.205-14.8 14.195a14.843 14.843 0 0 1-10.484-4.298 14.547 14.547 0 0 1-4.299-9.89h-.049v-3.075c0-1.004.117-2.033.215-3.043a64.556 64.556 0 0 1 2.31-12.077c-2.635-2.477-8.39-8.37-10.38-13.762a9.26 9.26 0 0 1-.006-6.933 7.93 7.93 0 0 1 2.911-3.494A8.33 8.33 0 0 1 10.137.612a9.76 9.76 0 0 1 6.755 2.526c4.017 3.47 7.13 9.86 8.66 13.446C27.08 13 30.2 6.608 34.217 3.138A9.765 9.765 0 0 1 40.929.612a8.33 8.33 0 0 1 4.336 1.37 7.929 7.929 0 0 1 2.911 3.5 9.26 9.26 0 0 1 0 6.92c-1.99 5.406-7.744 11.292-10.385 13.775l.154.518c.264.9.491 1.74.675 2.501a61.897 61.897 0 0 1 1.769 14.652zM23.55 30.11c.561.014 1.01.467 1.013 1.023v4.87a.939.939 0 0 1-.275.75.956.956 0 0 1-.756.272 1.033 1.033 0 0 1-1.032-1.022v-4.87a1.033 1.033 0 0 1 1.032-1.023z"/></g><g><path fill="#fff" d="M185.736 43.206h4.128c4.906 0 4.906-7.749 0-7.749h-4.128zm-114.351-3.11L78.03 29.65h7.72l-7.855 11.742 9.144 12.606h-8.395L71.39 43.182a2.75 2.75 0 0 1 0-3.086zM63.18 29.65h6.676v24.348H63.18zm64.453 9.441v-9.434h6.676v24.347h-6.67V44.82h-8.29V54h-6.676V29.65h6.694v9.441zm-32.72 5.6v3.713h13.277v5.6H91.577c-1.812.027-3.304-1.405-3.334-3.201V32.87c.01-.865.367-1.692.992-2.296a3.301 3.301 0 0 1 2.342-.924h16.508v5.6H94.912v3.841h11.945v5.6zm112.965 1.534l-9.393-16.575h7.533l5.408 10.227 5.42-10.227h7.447l-13.45 24.348h-7.17zM159.64 29.65l5.411 10.227 5.423-10.227h7.443l-13.456 24.348h-7.154l4.207-7.773-6.025-10.634h-9.329v18.413h-6.7V32.87c.01-.866.368-1.694.995-2.298a3.301 3.301 0 0 1 2.346-.922zm26.095 24.354h-6.676V32.87c.01-.865.367-1.692.993-2.296a3.301 3.301 0 0 1 2.342-.924h7.91c6.412 0 9.734 4.84 9.734 9.685 0 4.845-3.329 9.569-9.734 9.569h-4.57z"/></g><g><path fill="#fff" d="M63.376 58.37h7.597v1.631h-2.917v6.349h-1.769v-6.355H63.37z"/></g><g><path fill="#fff" d="M75.48 64.87c-1.41 0-2.552-1.132-2.552-2.529s1.143-2.529 2.552-2.529a2.468 2.468 0 0 1 1.8.736c.471.48.722 1.133.694 1.802a2.35 2.35 0 0 1-.676 1.815 2.394 2.394 0 0 1-1.818.705zm0-6.695a4.123 4.123 0 0 0-3.065 1.153 4.048 4.048 0 0 0-1.234 3.01c.004 2.282 1.863 4.134 4.165 4.15 2.302.016 4.187-1.81 4.224-4.09.037-2.282-1.788-4.166-4.09-4.223z"/></g><g><path fill="#fff" d="M84.761 63.051c1.052 0 1.55.275 1.55.88 0 .606-.541.85-1.599.85h-1.876v-1.73zm-.3-3.1c1.002 0 1.617.123 1.617.775 0 .56-.43.825-1.163.825h-2.079v-1.6zm-3.391 6.405h3.814c2.026 0 3.255-.816 3.255-2.38a1.824 1.824 0 0 0-1.13-1.856c.56-.356.899-.972.896-1.632 0-1.552-1.16-2.118-3.396-2.118H81.07z"/></g><g><path fill="#fff" d="M94.303 63.828a2.469 2.469 0 0 1-2.113 1.093c-.872 0-1.486-.405-1.486-1.008 0-.79.854-1.05 2.125-1.05.499-.001.996.07 1.474.21zm-4.023-3.175a3.549 3.549 0 0 1 2.285-.894c1.302 0 1.738.675 1.738 1.826a6.291 6.291 0 0 0-1.658-.213c-2.138 0-3.765.754-3.765 2.538 0 1.534 1.16 2.52 2.93 2.52a3.295 3.295 0 0 0 2.493-.968v.877h1.768v-4.87c0-2.07-1.179-3.287-3.304-3.287a5.002 5.002 0 0 0-3.377 1.181z"/></g><g><path fill="#fff" d="M99.437 61.119a2.224 2.224 0 0 1 2.02-1.305c1.4 0 2.267.939 2.267 2.555a2.314 2.314 0 0 1-.637 1.786c-.459.478-1.1.74-1.765.72a2.166 2.166 0 0 1-1.903-.987v-2.77zm-1.787 8.3h1.775V65.82c.585.49 1.343.729 2.106.664 2.414 0 4.029-1.893 4.029-4.26 0-2.369-1.486-4.043-3.906-4.043a2.918 2.918 0 0 0-2.235.907v-.724H97.65z"/></g><g><path fill="#fff" d="M114.23 66.35h1.768v-7.98h-1.768zm-4.359-4.03c1.237 0 1.714.434 1.714 1.223 0 .788-.447 1.222-1.732 1.222h-1.224V62.32zm-3.011 4.042h3.034c2.622 0 3.537-1.357 3.537-2.86 0-1.504-.804-2.813-3.408-2.813h-1.394V58.37h-1.769z"/></g><g><path fill="#fff" d="M124.055 59.994h2.718v4.73h-3.478c.531-1.29.79-2.674.76-4.068zm-3.487 8.182h1.646V66.35h5.804v1.826h1.646v-3.445h-1.13V58.37h-6.142v1.382c0 2.075-.184 3.719-.915 4.979h-.927z"/></g><g><path fill="#fff" d="M136.157 59.995h-2.85v1.218c0 4.26-1.394 5.344-3.396 5.18l-.141-1.632c.854.08 1.8-.444 1.8-4.151v-2.24h6.356v7.98h-1.769z"/></g><g><path fill="#fff" d="M141.203 61.076c0-.648.45-1.083 1.602-1.083h1.712v2.104h-1.756c-1.01 0-1.558-.373-1.558-1.021zm1.763-2.726c-2.635 0-3.58 1.23-3.58 2.642a2.347 2.347 0 0 0 1.842 2.435l-2.328 2.921h2.063l2.04-2.617h1.504v2.617h1.769v-7.98z"/></g><g><path fill="#fff" d="M150.745 58.364h2.174l2.818 3.117v-3.117h1.77v3.11l2.886-3.134h2.137l-3.347 3.652 3.427 4.365h-2.156l-2.604-3.379-.344.353v3.044h-1.769v-3.013l-.374-.384-2.537 3.366h-2.106l3.347-4.346z"/></g><g><path fill="#fff" d="M163.36 66.35v-7.98h1.769v5.21l4.299-5.21h1.535v7.98h-1.769v-5.186l-4.299 5.192z"/></g><g><path fill="#fff" d="M176.305 63.051c1.05 0 1.547.275 1.547.88 0 .606-.54.85-1.596.85h-1.867v-1.73zm-.295-3.1c1.001 0 1.615.123 1.615.775 0 .56-.43.825-1.16.825h-2.076v-1.6zm-3.39 6.405h3.814c2.026 0 3.255-.816 3.255-2.38a1.824 1.824 0 0 0-1.13-1.856c.56-.356.899-.972.896-1.632 0-1.552-1.16-2.118-3.396-2.118h-3.439z"/></g><g><path fill="#fff" d="M184.85 64.854c-1.41 0-2.551-1.13-2.551-2.524 0-1.394 1.142-2.524 2.551-2.524a2.47 2.47 0 0 1 1.802.737c.472.48.722 1.133.692 1.802.046.672-.2 1.33-.676 1.811a2.397 2.397 0 0 1-1.818.704zm0-6.68a4.123 4.123 0 0 0-3.065 1.154 4.048 4.048 0 0 0-1.234 3.01c.004 2.282 1.863 4.134 4.165 4.15 2.302.016 4.187-1.81 4.224-4.09.037-2.282-1.788-4.166-4.09-4.223z"/></g><g><path fill="#fff" d="M189.37 58.37h7.597v1.631h-2.899v6.349H192.3v-6.355h-2.917z"/></g><g><path fill="#fff" d="M203.47 63.118h-3.881v3.232h-1.769v-7.98h1.769v3.11h3.875v-3.11h1.769v7.98h-1.77z"/></g><g><path fill="#fff" d="M214.282 66.35h1.769v-7.98h-1.77zm-4.37-4.03c1.236 0 1.713.434 1.713 1.223 0 .788-.447 1.222-1.732 1.222h-1.224V62.32zm-3.012 4.042h3.003c2.622 0 3.537-1.357 3.537-2.86 0-1.504-.804-2.813-3.408-2.813h-1.363V58.37H206.9z"/></g><g><path fill="#fff" d="M222.28 62.225l3.242 4.133h-2.186l-2.186-2.842-2.236 2.836h-2.094l3.224-4.102-3.07-3.89h2.167l2.045 2.569 2.046-2.569h2.155z"/></g></g></g></svg>