<svg xmlns="http://www.w3.org/2000/svg" width="33" height="30" viewBox="0 0 33 30"><g><g><g><path fill="#fff" d="M21.14 16.542a.711.711 0 0 1 .389-.14c.284 0 .491.271.567.388.08.123.168.303.138.47-.032.183-.208.335-.35.43-.247.167-.519.262-.746.262-.273 0-.36-.132-.387-.176-.199-.306-.07-.925.389-1.234zm-1.667 2.095c.35.541.934.857 1.606.874l.059.002c.527 0 1.093-.185 1.59-.52.708-.477.942-1.053 1.013-1.453.096-.536-.031-1.093-.367-1.611-.449-.692-1.121-1.089-1.845-1.089-.425 0-.84.134-1.234.4-.543.366-.93.922-1.09 1.568-.086.349-.097.702-.039 1.034.05.287.153.558.307.795z"/></g><g><path fill="#fff" d="M10.456 16.8c.076-.117.282-.389.567-.389.12 0 .25.047.39.141.22.149.383.385.448.647.056.224.034.443-.06.587-.028.043-.114.175-.387.175-.227 0-.5-.095-.746-.261-.142-.096-.318-.248-.35-.43-.03-.167.058-.348.138-.47zm-1.645.75c.071.4.305.975 1.012 1.452.499.336 1.064.52 1.591.52h.043c.679-.013 1.269-.33 1.622-.875.156-.241.26-.517.31-.809a2.511 2.511 0 0 0-.042-1.02 2.653 2.653 0 0 0-1.09-1.568c-.394-.266-.808-.4-1.233-.4-.724 0-1.397.397-1.845 1.089-.337.517-.464 1.075-.368 1.61z"/></g><g><path fill="#fff" d="M28.225 20.934a6.56 6.56 0 0 1-.069.34c-.842-.176-1.75-.26-2.707-.25a16.052 16.052 0 0 0-3.366.4c-.213.05-.34.085-.357.09l.415 1.503c.007-.002.095-.026.249-.062.729-.173 2.954-.611 5.216-.2a5.52 5.52 0 0 1-.295.487 5.715 5.715 0 0 1-1.648 1.595 11.068 11.068 0 0 0-3.267-.892 7.439 7.439 0 0 0-1.055-.053l.067 1.56c.011-.001.27-.01.698.032.372.036.87.11 1.445.26-.21.055-.424.103-.644.143-.341.063-.674.108-.997.136a8.757 8.757 0 0 1-.748.034 7.22 7.22 0 0 1-.95-.061c-.997-.133-1.865-.482-2.596-1.044.235-.139.48-.31.73-.514.91-.749 1.42-1.643 1.444-2.524h-1.535c-.03.383-.32.837-.809 1.256a4.074 4.074 0 0 1-.97.622c-.092.04-.165.066-.21.077a.767.767 0 0 1-.084-.022 1.807 1.807 0 0 1-.135-.049 3.82 3.82 0 0 1-.985-.61c-.239-.203-.787-.73-.773-1.274h-1.533c-.006.713.305 1.428.905 2.073.349.376.793.717 1.239.974-.723.554-1.58.9-2.565 1.033a7.22 7.22 0 0 1-.968.063c-.236 0-.479-.011-.727-.032a10.45 10.45 0 0 1-1.624-.27 9.466 9.466 0 0 1 1.429-.264c.467-.048.752-.04.759-.04l.03-.778.034-.78a7.547 7.547 0 0 0-1.114.059 11.075 11.075 0 0 0-3.255.907 5.725 5.725 0 0 1-1.682-1.617 5.557 5.557 0 0 1-.286-.473c.677-.129 1.406-.19 2.176-.185 1.367.01 2.524.235 3.053.357.195.044.305.075.309.076l.414-1.502a8.299 8.299 0 0 0-.413-.104c-.61-.14-1.84-.372-3.309-.388-.987-.01-1.92.08-2.784.266a6.55 6.55 0 0 1-.073-.355c-.164-.935-.145-1.974.057-3.09.344-1.905.94-3.348 1.77-4.29l.235-.265c.31-.197.732-.476 1.157-.796 1.282-.966 1.879-1.762 1.879-2.506 0-.879-.379-2.91-1.81-4.304-1.064-1.034-2.464-1.519-4.163-1.44l.07 1.559c1.264-.059 2.285.28 3.034 1.01 1.084 1.056 1.331 2.62 1.336 3.158-.017.056-.182.472-1.338 1.328-.52.386-1.035.706-1.272.849a5.312 5.312 0 0 1-2.53-1.735A5.46 5.46 0 0 1 1.533 7c0-2.97 2.372-5.388 5.288-5.388 1.532 0 2.917 1.532 3.842 3.2-.345.167-.739.43-1.143.841l1.083 1.104c.443-.451.82-.6 1.02-.65h9.27c.2.05.576.199 1.019.65l1.083-1.104c-.4-.408-.79-.669-1.132-.836.925-1.67 2.311-3.205 3.845-3.205 2.916 0 5.288 2.417 5.288 5.388a5.46 5.46 0 0 1-1.196 3.413 5.309 5.309 0 0 1-2.577 1.75 16.893 16.893 0 0 1-1.297-.863c-1.156-.856-1.32-1.273-1.338-1.329.005-.538.252-2.102 1.336-3.158.749-.729 1.77-1.068 3.035-1.01l.07-1.56c-1.7-.078-3.1.407-4.163 1.441-1.432 1.395-1.81 3.426-1.81 4.305 0 .743.597 1.54 1.879 2.506.503.379 1.002.7 1.317.895l.146.166c.83.941 1.426 2.385 1.77 4.29.202 1.115.221 2.154.057 3.089zm-11.956 7.395l-.092-.001a4.439 4.439 0 0 1-2.683-.98c.351-.095.69-.214 1.012-.359a6.538 6.538 0 0 0 1.67-1.077l.083-.074a6.545 6.545 0 0 0 2.781 1.514 4.438 4.438 0 0 1-2.77.977zm13.397-10.767c-.305-1.683-.779-3.039-1.44-4.108a6.862 6.862 0 0 0 2.75-2.052 7.043 7.043 0 0 0 1.543-4.403c0-3.832-3.06-6.949-6.819-6.949-2.025 0-4.035 1.67-5.44 4.495h-8.001C10.854 1.72 8.843.05 6.819.05 3.058.05 0 3.167 0 6.999c0 1.602.548 3.166 1.543 4.403a6.865 6.865 0 0 0 2.75 2.052c-.661 1.07-1.136 2.425-1.44 4.108-.272 1.504-.25 2.91.054 4.168a7.875 7.875 0 0 0-2.508 1.55l1.03 1.156c.561-.52 1.23-.934 1.995-1.237a7.025 7.025 0 0 0 1.973 2.488c-.148.097-.293.198-.435.303a11.164 11.164 0 0 0-2.86 3.126l1.295.835c.9-1.45 2.06-2.567 3.46-3.337a9.493 9.493 0 0 0 2.489.81 11.179 11.179 0 0 0 2.236.191c1.108 1.367 2.754 2.245 4.594 2.273l.093.002c1.877 0 3.56-.884 4.686-2.274l.2.002c.638 0 1.316-.065 2.016-.194a9.482 9.482 0 0 0 2.525-.828c1.214.662 2.482 1.707 3.505 3.355l1.294-.835a11.16 11.16 0 0 0-2.86-3.126 10.38 10.38 0 0 0-.479-.332 7.01 7.01 0 0 0 1.95-2.486 6.373 6.373 0 0 1 2.062 1.264l1.03-1.155a7.901 7.901 0 0 0-2.58-1.58c.299-1.251.317-2.647.048-4.139z"/></g></g></g></svg>