<svg xmlns="http://www.w3.org/2000/svg" width="17" height="16" viewBox="0 0 17 16">
	<path fill="none" stroke="#572f8c" stroke-miterlimit="20"
		d="M13.357 11.224l-2.953-3.63c-.083-.066-.162-.158-.285-.238a1.137 1.137 0 0 0-.077-.05 1.734 1.734 0 0 0-.331-.18c-.364-.149-.687-.197-1.091-.215-.586-.022-1.009.215-1.392.511a2.161 2.161 0 0 0-.189.171c-.139.14-.189.205-.307.331-.023.022-.023.031-.043.051L3.473 12.04c-.039.083-.293.537-.293.854 0 .491.023.722.211 1.161.051.123.128.247.2.353.137.197.165.194.25.303.074.095.189.18.289.254.077.06.165.117.251.163.013.005.027.014.041.022.14.07.298.14.46.165l.5.054v0h.156c.528-.022 1.349-.265 1.816-.393.122-.035.253-.063.384-.095l.849-.105c.417-.025 1.192.143 1.614.265.479.143 1.055.303 1.551.328h.26c.484-.025.935-.2 1.299-.5.471-.387.767-.859.857-1.48.121-.838-.205-1.362-.7-2.02-.039-.053-.071-.096-.111-.145z" />
	<path fill="none" stroke="#572f8c" stroke-miterlimit="20"
		d="M14.982 6.122c-.721-.311-1.703.609-2.077 1.472-.373.864-.091 1.816.63 2.129.722.312 1.608-.136 1.98-1 .375-.863.188-2.288-.533-2.601z" />
	<path fill="none" stroke="#572f8c" stroke-miterlimit="20"
		d="M10.644 6.357c.951.203 1.918-.556 2.161-1.693.243-1.138-.33-2.82-1.28-3.024-.95-.202-1.917 1.151-2.159 2.29-.244 1.137.328 2.225 1.278 2.427z" />
	<path fill="none" stroke="#572f8c" stroke-miterlimit="20"
		d="M6.425 6.415c1.03-.082 1.788-1.15 1.689-2.385-.098-1.236-1.193-2.779-2.226-2.697-1.031.083-1.605 1.758-1.507 2.993.097 1.236 1.013 2.171 2.044 2.09z" />
	<path fill="none" stroke="#572f8c" stroke-miterlimit="20"
		d="M4.296 7.457C4.029 6.4 2.851 5.224 1.97 5.447c-.882.224-1.135 1.761-.868 2.817.268 1.057 1.2 1.733 2.082 1.51.882-.224 1.381-1.26 1.113-2.317z" />
</svg>