<svg xmlns="http://www.w3.org/2000/svg" width="16" height="16" viewBox="0 0 16 16"><g><g><path fill="none" stroke="#68d6f4" stroke-miterlimit="20" stroke-width="1.5" d="M15.286 11.367v2.143a1.429 1.429 0 0 1-1.557 1.429 14.136 14.136 0 0 1-6.165-2.193A13.929 13.929 0 0 1 3.28 8.46a14.136 14.136 0 0 1-2.193-6.193A1.429 1.429 0 0 1 2.507.71H4.65A1.429 1.429 0 0 1 6.08 1.94c.09.685.258 1.359.5 2.007.196.522.07 1.11-.322 1.507l-.907.907a11.429 11.429 0 0 0 4.286 4.286l.907-.907a1.429 1.429 0 0 1 1.507-.322c.648.242 1.322.41 2.007.5a1.429 1.429 0 0 1 1.229 1.45z"/></g></g></svg>