<svg xmlns="http://www.w3.org/2000/svg" width="36" height="35" viewBox="0 0 36 35"><g><g><g><path fill="#fff" d="M16.206 24.311c-.215.398-.632.606-.912.456-.163-.088-.219-.265-.238-.362-.039-.203.004-.44.117-.65.113-.21.288-.375.48-.454a.626.626 0 0 1 .233-.05c.064 0 .133.013.2.049.162.087.218.264.236.361.04.204-.003.44-.116.65zm1.09-.841a1.498 1.498 0 0 0-.744-1.053 1.498 1.498 0 0 0-1.288-.042 1.988 1.988 0 0 0-.974.902c-.223.413-.3.878-.218 1.31.089.461.36.845.744 1.052a1.4 1.4 0 0 0 .669.167c.614 0 1.246-.38 1.594-1.026.223-.414.3-.88.217-1.31z"/><path fill="none" stroke="#fff" stroke-miterlimit="20" stroke-width=".6" d="M16.206 24.311c-.215.398-.632.606-.912.456-.163-.088-.219-.265-.238-.362-.039-.203.004-.44.117-.65.113-.21.288-.375.48-.454a.626.626 0 0 1 .233-.05c.064 0 .133.013.2.049.162.087.218.264.236.361.04.204-.003.44-.116.65zm1.09-.841a1.498 1.498 0 0 0-.744-1.053 1.498 1.498 0 0 0-1.288-.042 1.988 1.988 0 0 0-.974.902c-.223.413-.3.878-.218 1.31.089.461.36.845.744 1.052a1.4 1.4 0 0 0 .669.167c.614 0 1.246-.38 1.594-1.026.223-.414.3-.88.217-1.31z"/></g><g><path fill="#fff" d="M20.74 24.397c-.018.097-.073.272-.235.36-.277.15-.692-.058-.905-.453-.213-.395-.158-.856.12-1.005.277-.15.692.057.905.452a.999.999 0 0 1 .115.646zm.767-1.121c-.479-.888-1.494-1.274-2.263-.86-.769.415-1.005 1.475-.526 2.363.348.646.98 1.026 1.594 1.026a1.4 1.4 0 0 0 .668-.167c.385-.207.656-.59.744-1.052.083-.431.006-.896-.217-1.31z"/><path fill="none" stroke="#fff" stroke-miterlimit="20" stroke-width=".6" d="M20.74 24.397c-.018.097-.073.272-.235.36-.277.15-.692-.058-.905-.453v0c-.213-.395-.158-.856.12-1.005.277-.15.692.057.905.452a.999.999 0 0 1 .115.646zm.767-1.121c-.479-.888-1.494-1.274-2.263-.86-.769.415-1.005 1.475-.526 2.363 0 0 0 0 0 0 .348.646.98 1.026 1.594 1.026a1.4 1.4 0 0 0 .668-.167c.385-.207.656-.59.744-1.052.083-.431.006-.896-.217-1.31z"/></g><g><path fill="#fff" d="M28.61 11.674c-.267-.4-.549-.79-.845-1.166A17.03 17.03 0 0 0 25.9 8.49c.14-.344.3-.679.475-.999a.5.5 0 1 0-.879-.482 10.57 10.57 0 0 0-.394.798c-.482-.383-.979-.73-1.49-1.038 1.13-1.143 3.504-3.24 6.504-4.209a11.626 11.626 0 0 0-3.296 2.568.5.5 0 0 0 .376.832.5.5 0 0 0 .377-.17c2.119-2.403 4.963-3.267 6.393-3.562-.184 1.988-1.097 8.144-5.355 9.445zm2.188 9.996c0 6.22-5.784 11.28-12.892 11.28S5.014 27.89 5.014 21.67c0-3.56 1.427-7.498 3.816-10.534 1.218-1.548 2.602-2.773 4.113-3.64 1.605-.922 3.274-1.39 4.963-1.39s3.358.468 4.963 1.39c1.511.867 2.895 2.092 4.113 3.64 2.39 3.036 3.816 6.973 3.816 10.534zM1.845 2.23c1.817.38 6.216 1.75 8.06 6.266a17.027 17.027 0 0 0-1.865 2.02c-.296.377-.578.767-.845 1.167-4.253-1.301-5.165-7.463-5.35-9.453zm10.345 4.537c-.512.308-1.008.654-1.489 1.036-.865-1.944-2.26-3.54-4.156-4.748-.28-.178-.56-.34-.838-.489 2.99.971 5.355 3.06 6.483 4.2zm21.928-.227c.8-2.51.88-4.805.883-4.901a.5.5 0 0 0-.436-.513c-2.518-.33-5.114.285-7.716 1.827-1.905 1.128-3.356 2.492-4.148 3.32-1.556-.776-3.168-1.169-4.801-1.169s-3.245.393-4.8 1.169c-.792-.828-2.244-2.192-4.148-3.32C6.35 1.41 3.754.797 1.236 1.126A.5.5 0 0 0 .8 1.64c.003.096.082 2.39.883 4.901 1.006 3.154 2.715 5.22 4.964 6.017-1.673 2.827-2.635 6.095-2.635 9.113 0 3.293 1.453 6.385 4.092 8.707 2.62 2.306 6.1 3.575 9.797 3.575 3.698 0 7.177-1.27 9.797-3.575 2.638-2.322 4.091-5.414 4.091-8.707 0-3.018-.962-6.286-2.634-9.113 2.249-.797 3.958-2.863 4.964-6.017z"/><path fill="none" stroke="#fff" stroke-miterlimit="20" stroke-width=".6" d="M28.61 11.674c-.267-.4-.549-.79-.845-1.166A17.03 17.03 0 0 0 25.9 8.49c.14-.344.3-.679.475-.999a.5.5 0 1 0-.879-.482 10.57 10.57 0 0 0-.394.798c-.482-.383-.979-.73-1.49-1.038 1.13-1.143 3.504-3.24 6.504-4.209a11.626 11.626 0 0 0-3.296 2.568.5.5 0 0 0 .376.832.5.5 0 0 0 .377-.17c2.119-2.403 4.963-3.267 6.393-3.562-.184 1.988-1.097 8.144-5.355 9.445zm2.188 9.996c0 6.22-5.784 11.28-12.892 11.28S5.014 27.89 5.014 21.67c0-3.56 1.427-7.498 3.816-10.534 1.218-1.548 2.602-2.773 4.113-3.64 1.605-.922 3.274-1.39 4.963-1.39s3.358.468 4.963 1.39c1.511.867 2.895 2.092 4.113 3.64 2.39 3.036 3.816 6.973 3.816 10.534zM1.845 2.23c1.817.38 6.216 1.75 8.06 6.266a17.027 17.027 0 0 0-1.865 2.02c-.296.377-.578.767-.845 1.167-4.253-1.301-5.165-7.463-5.35-9.453zm10.345 4.537c-.512.308-1.008.654-1.489 1.036-.865-1.944-2.26-3.54-4.156-4.748-.28-.178-.56-.34-.838-.489 2.99.971 5.355 3.06 6.483 4.2zm21.928-.227c.8-2.51.88-4.805.883-4.901a.5.5 0 0 0-.436-.513c-2.518-.33-5.114.285-7.716 1.827-1.905 1.128-3.356 2.492-4.148 3.32-1.556-.776-3.168-1.169-4.801-1.169s-3.245.393-4.8 1.169c-.792-.828-2.244-2.192-4.148-3.32C6.35 1.41 3.754.797 1.236 1.126A.5.5 0 0 0 .8 1.64c.003.096.082 2.39.883 4.901 1.006 3.154 2.715 5.22 4.964 6.017-1.673 2.827-2.635 6.095-2.635 9.113 0 3.293 1.453 6.385 4.092 8.707 2.62 2.306 6.1 3.575 9.797 3.575 3.698 0 7.177-1.27 9.797-3.575 2.638-2.322 4.091-5.414 4.091-8.707 0-3.018-.962-6.286-2.634-9.113 2.249-.797 3.958-2.863 4.964-6.017z"/></g><g><path fill="#fff" d="M22.915 26.49c-.809.741-2.557.592-3.833.483-.43-.036-.838-.07-1.174-.07-.329 0-.73.033-1.153.07-1.281.11-3.036.26-3.851-.487-.344-.316-.512-.785-.512-1.432 0-1.538.571-2.938 1.609-3.943 1.017-.986 2.404-1.529 3.905-1.529 1.5 0 2.889.543 3.908 1.53 1.04 1.005 1.612 2.405 1.612 3.942 0 .65-.167 1.12-.511 1.435zm-4.456 3.253h-1.122c-1.3 0-2.486-.67-3.166-1.732.896.112 1.862.03 2.666-.04.401-.034.78-.067 1.066-.067.293 0 .68.033 1.087.068a20.36 20.36 0 0 0 1.724.097c.306 0 .61-.015.906-.05a3.751 3.751 0 0 1-3.16 1.724zm4.044-9.352c-1.207-1.168-2.841-1.811-4.602-1.811-3.712 0-6.511 2.783-6.511 6.474 0 .93.281 1.66.836 2.17.195.179.416.321.655.435a4.761 4.761 0 0 0 4.456 3.086h1.122a4.75 4.75 0 0 0 4.451-3.071c.245-.116.471-.262.673-.447.554-.508.835-1.24.835-2.173 0-1.81-.68-3.467-1.915-4.663z"/><path fill="none" stroke="#fff" stroke-miterlimit="20" stroke-width=".6" d="M22.915 26.49c-.809.741-2.557.592-3.833.483-.43-.036-.838-.07-1.174-.07-.329 0-.73.033-1.153.07-1.281.11-3.036.26-3.851-.487-.344-.316-.512-.785-.512-1.432 0-1.538.571-2.938 1.609-3.943 1.017-.986 2.404-1.529 3.905-1.529 1.5 0 2.889.543 3.908 1.53 1.04 1.005 1.612 2.405 1.612 3.942 0 .65-.167 1.12-.511 1.435zm-4.456 3.253h-1.122c-1.3 0-2.486-.67-3.166-1.732.896.112 1.862.03 2.666-.04.401-.034.78-.067 1.066-.067.293 0 .68.033 1.087.068a20.36 20.36 0 0 0 1.724.097c.306 0 .61-.015.906-.05a3.751 3.751 0 0 1-3.16 1.724zm4.044-9.352c-1.207-1.168-2.841-1.811-4.602-1.811-3.712 0-6.511 2.783-6.511 6.474 0 .93.281 1.66.836 2.17.195.179.416.321.655.435a4.761 4.761 0 0 0 4.456 3.086h1.122a4.75 4.75 0 0 0 4.451-3.071c.245-.116.471-.262.673-.447.554-.508.835-1.24.835-2.173 0-1.81-.68-3.467-1.915-4.663z"/></g><g><path fill="#fff" d="M13.614 15.817a.501.501 0 0 0-.501.5v.536c0 .61-.496 1.106-1.105 1.106-.61 0-1.106-.496-1.106-1.106v-.535c0-.61.496-1.106 1.106-1.106a.501.501 0 1 0 0-1.002A2.11 2.11 0 0 0 9.9 16.318v.535a2.11 2.11 0 0 0 2.108 2.108 2.11 2.11 0 0 0 2.107-2.108v-.535a.501.501 0 0 0-.501-.501z"/><path fill="none" stroke="#fff" stroke-miterlimit="20" stroke-width=".6" d="M13.614 15.817a.501.501 0 0 0-.501.5v.536c0 .61-.496 1.106-1.105 1.106-.61 0-1.106-.496-1.106-1.106v-.535c0-.61.496-1.106 1.106-1.106a.501.501 0 1 0 0-1.002A2.11 2.11 0 0 0 9.9 16.318v.535a2.11 2.11 0 0 0 2.108 2.108 2.11 2.11 0 0 0 2.107-2.108v-.535a.501.501 0 0 0-.501-.501z"/></g><g><path fill="#fff" d="M25.394 15.817a.501.501 0 0 0-.501.5v.536c0 .61-.496 1.106-1.105 1.106-.61 0-1.106-.496-1.106-1.106v-.535c0-.61.496-1.106 1.106-1.106a.501.501 0 1 0 0-1.002 2.11 2.11 0 0 0-2.108 2.108v.535a2.11 2.11 0 0 0 2.108 2.108 2.11 2.11 0 0 0 2.107-2.108v-.535a.501.501 0 0 0-.501-.501z"/><path fill="none" stroke="#fff" stroke-miterlimit="20" stroke-width=".6" d="M25.394 15.817a.501.501 0 0 0-.501.5v.536c0 .61-.496 1.106-1.105 1.106-.61 0-1.106-.496-1.106-1.106v-.535c0-.61.496-1.106 1.106-1.106a.501.501 0 1 0 0-1.002 2.11 2.11 0 0 0-2.108 2.108v.535a2.11 2.11 0 0 0 2.108 2.108 2.11 2.11 0 0 0 2.107-2.108v-.535a.501.501 0 0 0-.501-.501z"/></g></g></g></svg>