<svg xmlns="http://www.w3.org/2000/svg" width="25" height="27" viewBox="0 0 25 27"><g><g><g><path fill="#68d6f4" d="M12.502 16.905c6.054 0 9.296 2.444 9.65 7.269h-19.3c.354-4.825 3.596-7.27 9.65-7.27zm0-1.825c-7.404 0-11.482 3.554-11.482 10.006 0 .504.403.913.9.913h21.165c.496 0 .899-.409.899-.913 0-6.452-4.078-10.006-11.482-10.006z"/><path fill="none" stroke="#68d6f4" stroke-miterlimit="20" stroke-width=".5" d="M12.502 16.905c6.054 0 9.296 2.444 9.65 7.269h-19.3c.354-4.825 3.596-7.27 9.65-7.27zm0-1.825c-7.404 0-11.482 3.554-11.482 10.006 0 .504.403.913.9.913h21.165c.496 0 .899-.409.899-.913 0-6.452-4.078-10.006-11.482-10.006z"/></g><g><path fill="#68d6f4" d="M12.506 11.929c-2.298 0-4.167-2.131-4.167-4.75 0-2.523 1.752-4.354 4.167-4.354 2.376 0 4.167 1.871 4.167 4.354 0 2.619-1.87 4.75-4.167 4.75zm0-10.929C9.105 1 6.54 3.654 6.54 7.174c0 3.622 2.676 6.569 5.966 6.569s5.966-2.947 5.966-6.569c0-3.52-2.565-6.174-5.966-6.174z"/><path fill="none" stroke="#68d6f4" stroke-miterlimit="20" stroke-width=".5" d="M12.506 11.929c-2.298 0-4.167-2.131-4.167-4.75 0-2.523 1.752-4.354 4.167-4.354 2.376 0 4.167 1.871 4.167 4.354 0 2.619-1.87 4.75-4.167 4.75zm0-10.929C9.105 1 6.54 3.654 6.54 7.174c0 3.622 2.676 6.569 5.966 6.569s5.966-2.947 5.966-6.569c0-3.52-2.565-6.174-5.966-6.174z"/></g></g></g></svg>